# Blender v2.79 (sub 0) OBJ File: 'item-box.blend'
# www.blender.org
mtllib item-box.mtl
o Cube
v 0.733333 1.800000 0.666667
v 0.733333 1.800000 -0.666667
v 0.733333 0.600000 0.666667
v 0.733333 0.600000 -0.666667
v 0.733333 1.733334 0.733333
v 0.733333 0.666667 0.733333
v 0.733333 1.733334 -0.733333
v 0.733333 0.666667 -0.733333
v 0.800000 0.333334 -0.866667
v 0.666667 0.333334 -1.000000
v 0.800000 0.333334 0.866667
v 0.666667 0.333334 1.000000
v -0.800000 0.333334 -0.866667
v -0.666667 0.333334 -1.000000
v -0.800000 0.333334 0.866667
v -0.666667 0.333334 1.000000
v -0.800000 0.000000 0.800000
v -0.800000 0.133333 0.800000
v -0.800000 0.000000 -0.800000
v -0.800000 0.133333 -0.800000
v 0.800000 0.000000 0.800000
v 0.800000 0.133333 0.800000
v 0.800000 0.000000 -0.800000
v 0.800000 0.133333 -0.800000
v -0.400000 0.133333 0.400000
v -0.400000 0.200000 0.400000
v -0.400000 0.133333 -0.400000
v -0.400000 0.200000 -0.400000
v 0.400000 0.133333 0.400000
v 0.400000 0.200000 0.400000
v 0.400000 0.133333 -0.400000
v 0.400000 0.200000 -0.400000
v -0.600000 0.200000 0.600000
v -0.600000 0.333334 0.600000
v -0.600000 0.200000 -0.600000
v -0.600000 0.333334 -0.600000
v 0.600000 0.200000 0.600000
v 0.600000 0.333334 0.600000
v 0.600000 0.200000 -0.600000
v 0.600000 0.333334 -0.600000
v 0.800000 1.800000 0.666667
v 0.800000 0.666667 0.733333
v 0.800000 1.733334 0.733333
v 0.800000 0.600000 0.666667
v 0.800000 0.600000 -0.666667
v 0.800000 1.800000 -0.666667
v 0.800000 0.666667 -0.733333
v 0.800000 1.733334 -0.733333
v 0.733333 1.729630 0.533333
v 0.733333 1.729630 -0.533333
v 0.733333 0.662963 0.533333
v 0.733333 0.662963 -0.533333
v -0.666667 2.000000 1.000000
v -0.666667 2.000000 -1.000000
v 0.666667 2.000000 1.000000
v 0.666667 2.000000 -1.000000
v -0.800000 2.000000 0.866667
v -0.800000 2.000000 -0.866667
v 0.800000 2.000000 0.866667
v 0.800000 2.000000 -0.866667
v 0.800000 0.466667 -1.000000
v 0.800000 0.466667 1.000000
v -0.800000 0.466667 -1.000000
v -0.800000 0.466667 1.000000
v 0.800000 1.866667 -1.000000
v 0.800000 1.866667 1.000000
v -0.800000 1.866667 -1.000000
v -0.800000 1.866667 1.000000
v 0.800000 0.533334 0.666667
v 0.800000 0.466667 0.666667
v 0.800000 0.533334 0.533333
v 0.800000 0.466667 0.533333
vt 0.050400 0.550400
vt 0.182933 0.682933
vt 0.182933 0.550400
vt 0.050400 0.683734
vt 0.182933 0.816266
vt 0.182933 0.683734
vt 0.555390 0.555390
vt 0.690262 0.684610
vt 0.690262 0.555390
vt 0.826695 0.555390
vt 0.859827 0.684610
vt 0.859827 0.555390
vt 0.758088 0.847890
vt 0.623217 0.863360
vt 0.758088 0.863360
vt 0.750390 0.055390
vt 0.847110 0.210610
vt 0.847110 0.055390
vt 0.749610 0.211390
vt 0.555390 0.288610
vt 0.749610 0.288610
vt 0.847890 0.055390
vt 0.944610 0.210610
vt 0.944610 0.055390
vt 0.749610 0.289390
vt 0.555390 0.366610
vt 0.749610 0.366610
vt 0.555390 0.055390
vt 0.749610 0.210610
vt 0.749610 0.055390
vt 0.847890 0.211390
vt 0.944610 0.288610
vt 0.944610 0.211390
vt 0.928434 0.555390
vt 0.936131 0.619610
vt 0.936131 0.555390
vt 0.893740 0.921015
vt 0.826695 0.928360
vt 0.893740 0.928360
vt 0.928434 0.620390
vt 0.936131 0.684610
vt 0.936131 0.620390
vt 0.690262 0.929140
vt 0.623217 0.936485
vt 0.690262 0.936485
vt 0.750390 0.211390
vt 0.847110 0.366610
vt 0.847110 0.211390
vt 0.749610 0.367390
vt 0.555390 0.444610
vt 0.749610 0.444610
vt 0.847890 0.289390
vt 0.944610 0.366610
vt 0.944610 0.289390
vt 0.928434 0.685390
vt 0.936131 0.749610
vt 0.936131 0.685390
vt 0.758088 0.929140
vt 0.691043 0.936485
vt 0.758088 0.936485
vt 0.928434 0.750390
vt 0.936131 0.814610
vt 0.936131 0.750390
vt 0.893740 0.929140
vt 0.826695 0.936485
vt 0.893740 0.936485
vt 0.894521 0.815390
vt 0.910697 0.879610
vt 0.910697 0.815390
vt 0.690262 0.912890
vt 0.623217 0.928360
vt 0.690262 0.928360
vt 0.911477 0.685390
vt 0.927653 0.749610
vt 0.927653 0.685390
vt 0.758088 0.912890
vt 0.691043 0.928360
vt 0.758088 0.928360
vt 0.902999 0.888515
vt 0.910697 0.895860
vt 0.910697 0.888515
vt 0.911477 0.750390
vt 0.919175 0.879610
vt 0.919175 0.750390
vt 0.690262 0.815390
vt 0.555390 0.847110
vt 0.690262 0.847110
vt 0.894521 0.888515
vt 0.902218 0.895860
vt 0.902218 0.888515
vt 0.928434 0.815390
vt 0.936131 0.879610
vt 0.936131 0.815390
vt 0.893740 0.912890
vt 0.758869 0.920235
vt 0.893740 0.920235
vt 0.902999 0.880390
vt 0.910697 0.887735
vt 0.910697 0.880390
vt 0.936912 0.555390
vt 0.944610 0.619610
vt 0.944610 0.555390
vt 0.894521 0.880390
vt 0.902218 0.887735
vt 0.902218 0.880390
vt 0.825914 0.847110
vt 0.691043 0.815390
vt 0.691043 0.847110
vt 0.876783 0.685390
vt 0.860608 0.814610
vt 0.876783 0.814610
vt 0.758088 0.879610
vt 0.623217 0.864140
vt 0.623217 0.879610
vt 0.826695 0.685390
vt 0.859827 0.814610
vt 0.859827 0.685390
vt 0.758088 0.880390
vt 0.623217 0.895860
vt 0.758088 0.895860
vt 0.183734 0.550400
vt 0.316266 0.682933
vt 0.316266 0.550400
vt 0.183734 0.683734
vt 0.316266 0.816266
vt 0.316266 0.683734
vt 0.050400 0.817067
vt 0.182933 0.949600
vt 0.182933 0.817067
vt 0.317067 0.550400
vt 0.449600 0.682933
vt 0.449600 0.550400
vt 0.893740 0.814610
vt 0.877564 0.685390
vt 0.877564 0.814610
vt 0.927653 0.912110
vt 0.911868 0.912110
vt 0.927653 0.897031
vt 0.910697 0.912110
vt 0.910697 0.897031
vt 0.894911 0.912110
vt 0.893740 0.880390
vt 0.758869 0.895860
vt 0.893740 0.895860
vt 0.894521 0.896640
vt 0.910306 0.896640
vt 0.894521 0.911719
vt 0.894521 0.555390
vt 0.910697 0.684610
vt 0.910697 0.555390
vt 0.911477 0.896640
vt 0.911477 0.911719
vt 0.927263 0.896640
vt 0.758088 0.896640
vt 0.623217 0.912110
vt 0.758088 0.912110
vt 0.910697 0.928360
vt 0.894911 0.928360
vt 0.910697 0.913281
vt 0.928824 0.912110
vt 0.944610 0.912110
vt 0.944610 0.897031
vt 0.928434 0.896640
vt 0.944219 0.896640
vt 0.928434 0.911719
vt 0.910306 0.912890
vt 0.894521 0.912890
vt 0.894521 0.927969
vt 0.910697 0.814610
vt 0.894521 0.685390
vt 0.894521 0.814610
vt 0.893740 0.912110
vt 0.758869 0.896640
vt 0.758869 0.912110
vt 0.911477 0.555390
vt 0.927653 0.684610
vt 0.927653 0.555390
vt 0.826695 0.815390
vt 0.893740 0.879610
vt 0.893740 0.815390
vt 0.555390 0.685390
vt 0.690262 0.814610
vt 0.690262 0.685390
vt 0.691043 0.555390
vt 0.825914 0.684610
vt 0.825914 0.555390
vt 0.691043 0.685390
vt 0.825914 0.814610
vt 0.825914 0.685390
vt 0.919175 0.880781
vt 0.919175 0.895860
vt 0.911868 0.895860
vt 0.911477 0.880390
vt 0.911477 0.895469
vt 0.918784 0.880390
vt 0.759259 0.936485
vt 0.825914 0.936485
vt 0.825914 0.921406
vt 0.928434 0.880390
vt 0.944610 0.895860
vt 0.944610 0.880390
vt 0.825914 0.847890
vt 0.758869 0.879610
vt 0.825914 0.879610
vt 0.893740 0.555390
vt 0.860608 0.684610
vt 0.893740 0.684610
vt 0.622436 0.944610
vt 0.555390 0.912890
vt 0.555390 0.944610
vt 0.062500 0.062500
vt 0.437500 0.437500
vt 0.062500 0.437500
vt 0.927653 0.750390
vt 0.919956 0.879610
vt 0.927653 0.879610
vt 0.758869 0.921015
vt 0.825524 0.921015
vt 0.758869 0.936094
vt 0.622436 0.847890
vt 0.555390 0.912110
vt 0.622436 0.912110
vt 0.927653 0.880390
vt 0.919956 0.895860
vt 0.927653 0.895860
vt 0.050400 0.682933
vt 0.050400 0.816266
vt 0.555390 0.684610
vt 0.826695 0.684610
vt 0.623217 0.847890
vt 0.750390 0.210610
vt 0.555390 0.211390
vt 0.847890 0.210610
vt 0.555390 0.289390
vt 0.555390 0.210610
vt 0.847890 0.288610
vt 0.928434 0.619610
vt 0.826695 0.921015
vt 0.928434 0.684610
vt 0.623217 0.929140
vt 0.750390 0.366610
vt 0.555390 0.367390
vt 0.847890 0.366610
vt 0.928434 0.749610
vt 0.691043 0.929140
vt 0.928434 0.814610
vt 0.826695 0.929140
vt 0.894521 0.879610
vt 0.623217 0.912890
vt 0.911477 0.749610
vt 0.691043 0.912890
vt 0.902999 0.895860
vt 0.911477 0.879610
vt 0.555390 0.815390
vt 0.894521 0.895860
vt 0.928434 0.879610
vt 0.758869 0.912890
vt 0.902999 0.887735
vt 0.936912 0.619610
vt 0.894521 0.887735
vt 0.825914 0.815390
vt 0.860608 0.685390
vt 0.758088 0.864140
vt 0.826695 0.814610
vt 0.623217 0.880390
vt 0.183734 0.682933
vt 0.183734 0.816266
vt 0.050400 0.949600
vt 0.317067 0.682933
vt 0.893740 0.685390
vt 0.758869 0.880390
vt 0.894521 0.684610
vt 0.623217 0.896640
vt 0.910697 0.685390
vt 0.893740 0.896640
vt 0.911477 0.684610
vt 0.826695 0.879610
vt 0.555390 0.814610
vt 0.691043 0.684610
vt 0.691043 0.814610
vt 0.928434 0.895860
vt 0.758869 0.847890
vt 0.860608 0.555390
vt 0.622436 0.912890
vt 0.437500 0.062500
vt 0.919956 0.750390
vt 0.555390 0.847890
vt 0.919956 0.880390
vt 0.000000 1.000000
vt 1.000000 0.000000
vt 1.000000 1.000000
vt 0.000000 0.000000
vn 1.0000 0.0000 0.0000
vn 0.0000 1.0000 0.0000
vn 0.0000 -1.0000 0.0000
vn -1.0000 0.0000 0.0000
vn 0.0000 0.0000 -1.0000
vn 0.0000 0.0000 1.0000
vn 0.0000 -0.7071 -0.7071
vn 0.0000 0.7071 -0.7071
vn 0.0000 -0.7071 0.7071
vn 0.0000 0.7071 0.7071
vn 0.5774 0.5774 0.5773
vn -0.5774 0.5774 0.5773
vn -0.5774 0.5774 -0.5773
vn 0.5774 0.5774 -0.5773
vn -0.5774 -0.5774 -0.5774
vn -0.5774 -0.5774 0.5774
vn 0.5774 -0.5774 0.5774
vn 0.5774 -0.5774 -0.5774
g Cube_Cube_Solid_Colours
usemtl Solid_Colours
s off
f 7/1/1 4/2/1 8/3/1
f 3/4/1 5/5/1 6/6/1
f 55/7/2 54/8/2 53/9/2
f 40/10/3 14/11/3 10/12/3
f 58/13/2 53/14/2 54/15/2
f 18/16/4 19/17/4 17/18/4
f 20/19/5 23/20/5 19/21/5
f 24/22/1 21/23/1 23/24/1
f 22/25/6 17/26/6 21/27/6
f 23/28/3 17/29/3 19/30/3
f 27/31/2 24/32/2 20/33/2
f 26/34/4 27/35/4 25/36/4
f 28/37/5 31/38/5 27/39/5
f 32/40/1 29/41/1 31/42/1
f 30/43/6 25/44/6 29/45/6
f 31/46/2 22/47/2 24/48/2
f 25/49/2 20/50/2 18/51/2
f 29/52/2 18/53/2 22/54/2
f 34/55/4 35/56/4 33/57/4
f 36/58/5 39/59/5 35/60/5
f 40/61/1 37/62/1 39/63/1
f 38/64/6 33/65/6 37/66/6
f 39/67/3 30/68/3 32/69/3
f 35/70/3 32/71/3 28/72/3
f 33/73/3 28/74/3 26/75/3
f 37/76/3 26/77/3 30/78/3
f 5/79/7 41/80/7 43/81/7
f 1/82/3 46/83/3 41/84/3
f 36/85/3 16/86/3 14/87/3
f 3/88/8 42/89/8 44/90/8
f 6/91/5 43/92/5 42/93/5
f 4/94/2 44/95/2 45/96/2
f 2/97/9 48/98/9 46/99/9
f 7/100/6 47/101/6 48/102/6
f 8/103/10 45/104/10 47/105/10
f 12/106/3 40/107/3 10/108/3
f 10/109/3 11/110/3 12/111/3
f 16/112/3 13/113/3 14/114/3
f 12/115/3 34/116/3 38/117/3
f 59/118/2 56/119/2 55/120/2
f 52/121/1 3/122/1 4/123/1
f 50/124/1 4/125/1 2/126/1
f 49/127/1 2/128/1 1/129/1
f 3/130/1 49/131/1 1/132/1
f 55/133/6 68/134/6 66/135/6
f 59/136/11 55/137/11 66/138/11
f 57/139/12 68/140/12 53/141/12
f 67/142/4 57/143/4 58/144/4
f 58/145/13 54/146/13 67/147/13
f 65/148/5 54/149/5 56/150/5
f 60/151/14 65/152/14 56/153/14
f 66/154/1 60/155/1 59/156/1
f 13/157/15 63/158/15 14/159/15
f 64/160/16 15/161/16 16/162/16
f 11/163/17 62/164/17 12/165/17
f 61/166/18 9/167/18 10/168/18
f 10/169/5 63/170/5 61/171/5
f 15/172/4 63/173/4 13/174/4
f 62/175/6 16/176/6 12/177/6
f 72/178/1 11/179/1 9/180/1
f 63/181/5 65/182/5 61/183/5
f 64/184/4 67/185/4 63/186/4
f 66/187/6 64/188/6 62/189/6
f 66/190/1 43/191/1 41/192/1
f 48/193/1 65/194/1 46/195/1
f 61/196/1 47/197/1 45/198/1
f 42/199/1 69/200/1 44/201/1
f 66/202/1 42/203/1 43/204/1
f 46/205/1 66/206/1 41/207/1
f 47/208/1 65/209/1 48/210/1
f 70/211/1 71/212/1 69/213/1
f 9/214/1 71/215/1 72/216/1
f 45/217/1 71/218/1 61/219/1
f 44/220/1 71/221/1 45/222/1
f 70/223/1 62/224/1 11/225/1
f 7/1/1 2/226/1 4/2/1
f 3/4/1 1/227/1 5/5/1
f 55/7/2 56/228/2 54/8/2
f 40/10/3 36/229/3 14/11/3
f 58/13/2 57/230/2 53/14/2
f 18/16/4 20/231/4 19/17/4
f 20/19/5 24/232/5 23/20/5
f 24/22/1 22/233/1 21/23/1
f 22/25/6 18/234/6 17/26/6
f 23/28/3 21/235/3 17/29/3
f 27/31/2 31/236/2 24/32/2
f 26/34/4 28/237/4 27/35/4
f 28/37/5 32/238/5 31/38/5
f 32/40/1 30/239/1 29/41/1
f 30/43/6 26/240/6 25/44/6
f 31/46/2 29/241/2 22/47/2
f 25/49/2 27/242/2 20/50/2
f 29/52/2 25/243/2 18/53/2
f 34/55/4 36/244/4 35/56/4
f 36/58/5 40/245/5 39/59/5
f 40/61/1 38/246/1 37/62/1
f 38/64/6 34/247/6 33/65/6
f 39/67/3 37/248/3 30/68/3
f 35/70/3 39/249/3 32/71/3
f 33/73/3 35/250/3 28/74/3
f 37/76/3 33/251/3 26/77/3
f 5/79/7 1/252/7 41/80/7
f 1/82/3 2/253/3 46/83/3
f 36/85/3 34/254/3 16/86/3
f 3/88/8 6/255/8 42/89/8
f 6/91/5 5/256/5 43/92/5
f 4/94/2 3/257/2 44/95/2
f 2/97/9 7/258/9 48/98/9
f 7/100/6 8/259/6 47/101/6
f 8/103/10 4/260/10 45/104/10
f 12/106/3 38/261/3 40/107/3
f 10/109/3 9/262/3 11/110/3
f 16/112/3 15/263/3 13/113/3
f 12/115/3 16/264/3 34/116/3
f 59/118/2 60/265/2 56/119/2
f 52/121/1 51/266/1 3/122/1
f 50/124/1 52/267/1 4/125/1
f 49/127/1 50/268/1 2/128/1
f 3/130/1 51/269/1 49/131/1
f 55/133/6 53/270/6 68/134/6
f 67/142/4 68/271/4 57/143/4
f 65/148/5 67/272/5 54/149/5
f 66/154/1 65/273/1 60/155/1
f 10/169/5 14/274/5 63/170/5
f 15/172/4 64/275/4 63/173/4
f 62/175/6 64/276/6 16/176/6
f 72/178/1 70/277/1 11/179/1
f 63/181/5 67/278/5 65/182/5
f 64/184/4 68/279/4 67/185/4
f 66/187/6 68/280/6 64/188/6
f 42/199/1 62/281/1 69/200/1
f 66/202/1 62/282/1 42/203/1
f 46/205/1 65/283/1 66/206/1
f 47/208/1 61/284/1 65/209/1
f 70/211/1 72/285/1 71/212/1
f 9/214/1 61/286/1 71/215/1
f 44/220/1 69/287/1 71/221/1
f 70/223/1 69/288/1 62/224/1
g Cube_Cube_Static
usemtl Static
f 49/289/1 52/290/1 50/291/1
f 49/289/1 51/292/1 52/290/1
