# Blender v2.79 (sub 0) OBJ File: 'door.blend'
# www.blender.org
mtllib door.mtl
o Cube
v -2.000000 0.000000 0.250000
v -2.000000 4.000000 0.250000
v -2.000000 0.000000 -0.250000
v -2.000000 4.000000 -0.250000
v 2.000000 0.000000 0.250000
v 2.000000 4.000000 0.250000
v 2.000000 0.000000 -0.250000
v 2.000000 4.000000 -0.250000
vt 0.999900 0.999900
vt 0.000100 0.000100
vt 0.999900 0.000100
vt 0.999900 0.999900
vt 0.000000 0.000000
vt 0.999900 0.000000
vt 0.999965 0.000035
vt 0.000035 0.062500
vt 0.000035 0.000035
vt 0.000100 0.999900
vt 0.000000 0.999900
vt 0.999965 0.062500
vn 0.0000 0.0000 -1.0000
vn 0.0000 0.0000 1.0000
vn 0.0000 -1.0000 0.0000
g Cube_Cube_Door
usemtl Door
s off
f 4/1/1 7/2/1 3/3/1
f 6/4/2 1/5/2 5/6/2
f 7/7/3 1/8/3 3/9/3
f 4/1/1 8/10/1 7/2/1
f 6/4/2 2/11/2 1/5/2
f 7/7/3 5/12/3 1/8/3
