# Blender v2.79 (sub 0) OBJ File: 'ice-block.blend'
# www.blender.org
mtllib ice-block.mtl
o Cube
v -2.500000 0.000000 -2.500000
v 2.500000 0.000000 -2.500000
v 2.500000 -1.000000 -2.500000
v -2.500000 0.000000 2.500000
v -2.500000 -1.000000 -2.500000
v 0.000000 -1.000000 0.000000
v -2.500000 -1.000000 2.500000
v 2.500000 -1.000000 2.500000
v 2.500000 0.000000 2.500000
v -2.500000 -1.000000 0.000000
v 0.000000 -1.000000 2.500000
v 2.500000 -1.000000 0.000000
v 0.000000 -1.000000 -2.500000
vt 1.375000 1.375000
vt -0.375000 1.375000
vt -0.375000 -0.375000
vt -0.725000 -0.725000
vt -0.725000 0.500000
vt 1.725000 0.500000
vt 1.375000 -0.375000
vt 1.725000 -0.725000
vt 0.500000 1.725000
vt -0.725000 1.725000
vt 0.500000 -0.725000
vt 0.500000 0.500000
vt 1.725000 1.725000
vn 0.0000 1.0000 0.0000
vn -1.0000 -0.0000 0.0000
vn 1.0000 -0.0000 0.0000
vn -0.0000 -0.0000 -1.0000
vn 0.0000 0.0000 1.0000
vn -0.0000 -1.0000 0.0000
g Cube_Cube_Ice
usemtl Ice
s off
f 2/1/1 1/2/1 4/3/1
f 7/4/2 4/3/2 10/5/2
f 12/6/3 9/7/3 8/8/3
f 13/9/4 5/10/4 1/2/4
f 4/3/5 7/4/5 11/11/5
f 6/12/6 5/10/6 13/9/6
f 10/5/6 5/10/6 6/12/6
f 12/6/6 8/8/6 6/12/6
f 11/11/6 7/4/6 6/12/6
f 4/3/2 1/2/2 10/5/2
f 9/7/5 4/3/5 11/11/5
f 8/8/5 9/7/5 11/11/5
f 2/1/3 9/7/3 12/6/3
f 3/13/3 2/1/3 12/6/3
f 3/13/4 13/9/4 2/1/4
f 2/1/4 13/9/4 1/2/4
f 3/13/6 12/6/6 6/12/6
f 3/13/6 6/12/6 13/9/6
f 7/4/6 10/5/6 6/12/6
f 8/8/6 11/11/6 6/12/6
f 9/7/1 2/1/1 4/3/1
f 1/2/2 5/10/2 10/5/2
