# Blender v2.79 (sub 0) OBJ File: 'snow-patch.blend'
# www.blender.org
mtllib snow-patch.mtl
o Cube
v -1.500000 0.000000 1.500000
v -1.125000 0.300000 1.125000
v -1.500000 0.000000 -1.500000
v -1.125000 0.300000 -1.125000
v 1.500000 0.000000 1.500000
v 1.125000 0.300000 1.125000
v 1.500000 0.000000 -1.500000
v 1.125000 0.300000 -1.125000
vt 0.937500 0.937500
vt 0.750000 2.250000
vt 0.750000 0.750000
vt 0.937500 0.062500
vt 2.250000 0.250000
vt 0.750000 0.250000
vt 0.062500 0.062500
vt 0.250000 -1.250000
vt 0.250000 0.250000
vt 0.062500 0.937500
vt -1.250000 0.750000
vt 0.250000 0.750000
vt -1.062500 0.062500
vt 0.062500 -1.062500
vt 0.937500 2.062500
vt 2.062500 0.062500
vt -1.062500 0.937500
vt -1.062500 -1.062500
vn -0.6247 0.7809 0.0000
vn 0.0000 0.7809 -0.6247
vn 0.6247 0.7809 0.0000
vn 0.0000 0.7809 0.6247
vn 0.0000 1.0000 0.0000
g Cube_Cube_Snow
usemtl Snow
s off
f 2/1/1 3/2/1 1/3/1
f 4/4/2 7/5/2 3/6/2
f 8/7/3 5/8/3 7/9/3
f 6/10/4 1/11/4 5/12/4
f 4/13/5 6/14/5 8/7/5
f 2/1/1 4/15/1 3/2/1
f 4/4/2 8/16/2 7/5/2
f 8/7/3 6/14/3 5/8/3
f 6/10/4 2/17/4 1/11/4
f 4/13/5 2/18/5 6/14/5
