# Blender v2.79 (sub 0) OBJ File: 'chalice.blend'
# www.blender.org
mtllib chalice.mtl
o Icosphere
v 0.000000 0.054314 0.000000
v -0.156206 0.300681 0.215002
v -0.252749 0.300681 -0.082122
v 0.000000 0.300683 -0.265756
v 0.252749 0.300681 -0.082122
v 0.156206 0.300681 0.215002
v -0.148561 0.120875 -0.048270
v -0.091815 0.120875 0.126374
v -0.240378 0.265687 0.078105
v -0.000000 0.265687 0.252749
v 0.091815 0.120875 0.126374
v 0.000000 0.120876 -0.156207
v -0.148562 0.265687 -0.204478
v 0.148561 0.120875 -0.048270
v 0.148562 0.265687 -0.204478
v 0.240378 0.265687 0.078105
v -0.091815 0.500001 0.282583
v 0.091815 0.500001 0.282583
v -0.297125 0.500001 -0.000000
v -0.240379 0.500001 0.174646
v -0.091815 0.500001 -0.282583
v -0.240379 0.500001 -0.174646
v 0.240379 0.500001 -0.174646
v 0.091815 0.500001 -0.282583
v 0.240379 0.500001 0.174646
v 0.297125 0.500001 0.000000
v -0.187447 0.260817 0.258002
v -0.303299 0.260817 -0.098546
v 0.000000 0.260819 -0.318908
v 0.303299 0.260817 -0.098546
v 0.187447 0.260817 0.258002
v -0.178273 0.045050 -0.057924
v -0.110178 0.045050 0.151649
v -0.288453 0.218824 0.093726
v -0.000000 0.218825 0.303299
v 0.110178 0.045050 0.151649
v 0.000000 0.045051 -0.187449
v -0.178274 0.218824 -0.245374
v 0.178273 0.045050 -0.057924
v 0.178274 0.218824 -0.245374
v 0.288453 0.218824 0.093726
v -0.110178 0.500001 0.339100
v 0.110178 0.500001 0.339100
v -0.356550 0.500001 -0.000000
v -0.288455 0.500001 0.209575
v -0.110178 0.500001 -0.339100
v -0.288455 0.500001 -0.209575
v 0.288455 0.500001 -0.209575
v 0.110178 0.500001 -0.339100
v 0.288455 0.500001 0.209575
v 0.356550 0.500001 0.000000
v 0.322502 0.500001 0.104788
v 0.288454 0.359412 0.151650
v 0.322502 0.359412 0.046863
v 0.199317 0.500001 -0.274337
v 0.233364 0.359413 -0.227474
v 0.144226 0.359413 -0.292237
v -0.199317 0.500001 -0.274337
v -0.144226 0.359413 -0.292237
v -0.233364 0.359413 -0.227474
v -0.322502 0.500001 0.104787
v -0.322502 0.359412 0.046863
v -0.288454 0.359412 0.151650
v -0.000000 0.500001 0.339100
v -0.055089 0.359413 0.321199
v 0.055089 0.359413 0.321199
v 0.182482 0.275060 -0.251167
v 0.195108 0.443766 -0.268545
v 0.215537 0.359413 -0.240427
v 0.162054 0.359413 -0.279284
v -0.182482 0.275060 -0.251167
v -0.195108 0.443766 -0.268545
v -0.162054 0.359413 -0.279284
v -0.215537 0.359413 -0.240427
v -0.295263 0.275059 0.095938
v -0.315693 0.443766 0.102575
v -0.315692 0.359412 0.067820
v -0.295264 0.359412 0.130693
v -0.000000 0.275060 0.310459
v -0.000000 0.443766 0.331939
v -0.033054 0.359413 0.321199
v 0.033054 0.359413 0.321199
v 0.295263 0.275059 0.095938
v 0.315693 0.443766 0.102575
v 0.295264 0.359412 0.130693
v 0.315692 0.359412 0.067820
v 0.333510 0.355659 0.108365
v 0.206120 0.355660 -0.283701
v -0.206120 0.355660 -0.283701
v -0.000000 0.355660 0.350674
v -0.089137 0.005113 -0.028962
v 0.000000 0.005114 -0.093724
v 0.089137 0.005113 -0.028962
v -0.055089 0.005113 0.075824
v 0.055089 0.005113 0.075824
v -0.089137 -0.403434 -0.028962
v 0.000000 -0.403433 -0.093724
v 0.089137 -0.403434 -0.028962
v -0.055089 -0.403434 0.075824
v 0.055089 -0.403434 0.075824
v -0.000000 -0.470287 0.189561
v 0.180282 -0.470287 0.058578
v 0.111421 -0.470286 -0.153358
v -0.111421 -0.470286 -0.153358
v -0.180282 -0.470287 0.058578
v -0.000000 -0.499999 0.000000
v -0.180282 -0.500000 0.248139
v 0.180282 -0.500000 0.248139
v 0.291703 -0.499999 -0.094780
v 0.000000 -0.499998 -0.306716
v -0.291703 -0.499999 -0.094780
v -0.295263 0.275059 0.095938
v -0.315693 0.443766 0.102575
v -0.315692 0.359412 0.067820
v -0.295264 0.359412 0.130693
v -0.333510 0.355659 0.108365
vt -1.357713 0.529260
vt -0.863961 0.510025
vt -1.080923 0.643426
vt 1.765319 1.018729
vt 1.350807 0.808750
vt 1.700216 0.509342
vt -1.103968 0.941951
vt -1.492121 1.247728
vt -1.395004 1.012278
vt -1.551824 0.757221
vt 1.958176 0.659047
vt 2.216136 0.808751
vt 1.801625 1.567703
vt 1.608768 1.927386
vt 1.350807 1.777677
vt 1.737702 -1.098744
vt 1.917117 -1.490677
vt 2.170382 -1.398153
vt 1.744368 -0.274531
vt 1.919077 -0.464578
vt 2.174302 -0.314870
vt -1.549183 1.577978
vt -1.742039 1.937664
vt -2.000000 1.787959
vt 2.185579 1.293216
vt 1.381364 1.293216
vt 2.170382 -0.799335
vt -1.549183 2.596760
vt -1.969443 2.871247
vt -2.000000 2.386786
vt 1.765319 -0.000044
vt 2.185579 -0.274531
vt 2.216136 0.209933
vt -2.000000 2.087373
vt -1.484079 2.087368
vt -1.742039 2.237077
vt 2.172342 -0.557103
vt 1.917117 -0.706811
vt 1.663852 -0.614286
vt 2.172342 -1.640386
vt 1.744368 -1.922957
vt 1.919077 -1.732910
vt 1.663852 -1.583202
vt 1.350807 2.077091
vt 1.801625 2.586485
vt 1.608768 2.226799
vt 1.866729 2.077095
vt 2.216136 0.509342
vt 1.958176 0.359638
vt -1.134672 1.787960
vt -1.805761 0.737615
vt -2.000000 1.208519
vt -1.134672 2.386781
vt -1.104282 1.577978
vt -1.628340 1.577978
vt -0.910050 1.107073
vt 1.350807 -1.098744
vt -0.476120 0.840273
vt -0.559642 0.322913
vt 1.350807 0.209934
vt -1.925417 0.242480
vt -1.417540 0.281693
vt 2.216136 1.777683
vt -0.983612 0.014887
vt 2.216136 2.376503
vt 0.916667 0.371245
vt 1.000000 0.345494
vt 1.000000 0.500000
vt 0.916667 0.628755
vt 0.809017 0.904508
vt 0.757514 0.837090
vt 0.654508 0.952254
vt 0.242486 0.837090
vt 0.500000 1.000000
vt 0.190983 0.904508
vt 0.095492 0.779507
vt 0.083333 0.628755
vt 0.000000 0.345494
vt 0.083333 0.371245
vt 0.095492 0.220493
vt 0.500000 0.083333
vt 0.190983 0.095492
vt 0.500000 0.000000
vt 0.654508 0.047746
vt 0.809017 0.095492
vt 1.765550 -1.594639
vt 2.070644 -1.628949
vt 1.350807 2.376504
vt 1.765550 -0.602849
vt 2.174302 -1.882618
vt 2.070644 -0.568539
vt 1.917509 -0.658364
vt 1.918685 -0.513025
vt 1.918685 -1.684464
vt 1.763545 2.077094
vt 1.453992 2.077091
vt 1.608768 2.166917
vt 2.112952 0.509342
vt 1.958176 0.419520
vt 1.803400 0.509342
vt -1.587263 2.087369
vt -1.896816 2.087372
vt -1.742039 2.177195
vt -0.176710 0.014887
vt -0.476120 0.752241
vt -0.476120 0.014887
vt 2.216136 2.652973
vt 2.458364 1.910911
vt 2.458364 2.651014
vt 2.700592 2.648265
vt 3.000000 1.910911
vt 3.000000 2.648265
vt 2.700592 2.652973
vt 2.700592 1.912870
vt -0.476120 0.752241
vt -0.176710 1.489595
vt -0.476120 1.489595
vt 0.597788 -0.888027
vt 0.259745 -0.827473
vt 0.421801 -1.130256
vt 0.259746 -1.433041
vt 0.597789 -1.372481
vt 0.835677 -1.620170
vt 0.882546 -1.279959
vt 1.191624 -1.130251
vt 0.882547 -0.980547
vt 0.835677 -0.640336
vt 1.350807 -1.620167
vt 1.350807 -0.640333
vt 0.418928 -0.337554
vt -0.157003 -1.130260
vt 0.418930 -1.922957
vt -0.157003 0.455143
vt 0.676494 0.455148
vt 0.418928 1.247848
vt 1.350807 0.945069
vt 1.350807 -0.034765
vt 0.418930 -0.337554
vt 1.000000 0.654506
vt 0.500000 0.916667
vt 0.000000 0.654506
vt 0.242486 0.162910
vt 0.757514 0.162910
vt 1.917509 -1.539124
vt 1.608768 1.987268
vt 1.958176 0.599165
vt -1.742039 1.997546
vt -0.176709 0.752241
vt 2.216136 1.912870
vt 2.700592 1.910911
vt -0.176710 0.752241
vt 0.000000 0.500000
vt 0.499992 0.000000
vt 0.499998 0.500000
vt 0.000000 0.500000
vt 0.500000 0.000000
vt 0.500000 0.500000
vt 0.500003 1.000000
vt 0.000000 0.500000
vt 0.499995 0.500000
vt 0.500003 0.000000
vt 1.000000 0.500000
vt 0.500005 0.500000
vt 1.000000 0.500000
vt 0.500008 1.000000
vt 0.499997 0.000000
vt 1.000000 0.500000
vt 0.499997 1.000000
vt 0.000000 0.500000
vt 1.000000 0.500000
vt 0.500000 1.000000
vt 0.000000 0.500000
vt 0.500008 0.000000
vt 0.500002 0.500000
vt 1.000000 0.500000
vt 0.499992 1.000000
vt 0.500000 0.500000
vt 0.414592 0.250002
vt 0.723605 0.345494
vt 0.880422 0.237137
vt 0.947211 0.500000
vt 0.223608 0.500000
vt 0.414592 0.749998
vt 0.723605 0.654506
vt 1.000000 0.345494
vt 0.354694 0.074675
vt 0.500000 0.000000
vt 0.638198 0.095494
vt 0.029773 0.500000
vt 0.000000 0.345494
vt 0.138198 0.250002
vt 0.354694 0.925325
vt 0.190983 0.904508
vt 0.138198 0.749999
vt 0.880422 0.762863
vt 0.809017 0.904508
vt 0.638198 0.904506
vt 0.809017 0.095492
vt 0.190983 0.095492
vt 0.000000 0.654506
vt 0.500000 1.000000
vt 1.000000 0.654506
vn -0.4432 -0.8848 0.1440
vn -0.3081 -0.5071 0.8049
vn -0.2739 -0.8848 -0.3770
vn 0.2739 -0.8848 -0.3770
vn 0.4432 -0.8848 0.1440
vn -0.2765 -0.2273 0.9337
vn -0.9735 -0.2273 0.0255
vn -0.3251 -0.2273 -0.9180
vn 0.7726 -0.2273 -0.5929
vn 0.8026 -0.2273 0.5516
vn -0.5857 -0.0841 0.8062
vn -0.9477 -0.0841 -0.3079
vn 0.0000 -0.0841 -0.9965
vn 0.9477 -0.0841 -0.3079
vn 0.5857 -0.0841 0.8062
vn 0.9434 -0.1263 0.3065
vn -0.1374 -0.5494 -0.8242
vn 0.5831 -0.1263 -0.8025
vn 0.3251 -0.2273 -0.9180
vn -0.5831 -0.1263 -0.8025
vn -0.7726 -0.2273 -0.5929
vn -0.9434 -0.1263 0.3065
vn -0.8026 -0.2273 0.5516
vn 0.0000 -0.1263 0.9920
vn 0.0000 -1.0000 0.0000
vn 0.6703 -0.5071 0.5418
vn 0.7166 -0.6575 0.2328
vn 0.8607 -0.5071 -0.0443
vn 0.7224 -0.5071 -0.4701
vn 0.4429 -0.6575 -0.6095
vn 0.2239 -0.5071 -0.8323
vn -0.2239 -0.5071 -0.8323
vn -0.4429 -0.6575 -0.6095
vn -0.7224 -0.5071 -0.4701
vn 0.3081 -0.5071 0.8049
vn 0.0000 -0.6575 0.7534
vn -0.8607 -0.5071 -0.0443
vn -0.7166 -0.6575 0.2328
vn -0.6703 -0.5071 0.5418
vn 0.0000 1.0000 0.0000
vn 0.0000 -0.8848 0.4660
vn -0.9511 0.0000 0.3090
vn 0.5878 0.0000 -0.8090
vn 0.0000 0.0000 1.0000
vn -0.5878 0.0000 -0.8090
vn 0.9511 0.0000 0.3090
vn -0.4819 0.8621 0.1566
vn -0.4386 0.6657 0.6037
vn 0.0000 0.8621 0.5067
vn 0.4386 0.6657 0.6037
vn 0.4819 0.8621 0.1566
vn 0.7097 0.6657 -0.2306
vn 0.2979 0.8621 -0.4100
vn 0.0000 0.6657 -0.7463
vn -0.2979 0.8621 -0.4099
vn -0.7097 0.6657 -0.2306
vn 0.1809 0.9817 -0.0588
vn 0.2659 0.8918 -0.3660
vn 0.0000 0.9817 -0.1902
vn -0.2659 0.8918 -0.3660
vn -0.1809 0.9817 -0.0588
vn -0.4302 0.8918 0.1398
vn -0.1118 0.9817 0.1539
vn -0.0000 0.8918 0.4524
vn 0.1118 0.9817 0.1539
vn 0.4302 0.8918 0.1398
vn 0.9735 -0.2273 0.0255
vn 0.2765 -0.2273 0.9337
vn 0.9092 0.1586 -0.3849
vn 0.6470 0.1586 0.7458
vn -0.1224 -0.3404 -0.9323
vn 0.0851 0.1586 -0.9837
vn 0.4489 -0.3404 0.8262
vn 0.5093 0.1586 0.8458
vn 0.8488 -0.3404 -0.4045
vn 0.9618 0.1586 -0.2231
vn 0.9245 -0.3404 -0.1717
vn -0.0851 0.1586 -0.9837
vn -0.9245 -0.3404 -0.1717
vn 0.1224 -0.3404 -0.9323
vn -0.9618 0.1586 -0.2231
vn -0.6470 -0.3404 0.6823
vn -0.6470 0.1586 0.7458
vn 0.6470 -0.3404 0.6823
vn -0.5093 0.1586 0.8458
vn -0.8488 -0.3404 -0.4045
vn -0.9092 0.1586 -0.3849
vn -0.4489 -0.3404 0.8262
vn 0.4432 0.8848 -0.1440
vn 0.3081 0.5071 -0.8049
vn 0.2739 0.8848 0.3770
vn -0.2739 0.8848 0.3770
vn -0.4432 0.8848 -0.1440
vn 0.2765 0.2273 -0.9337
vn 0.9735 0.2273 -0.0255
vn 0.3251 0.2273 0.9180
vn -0.7726 0.2273 0.5929
vn -0.8026 0.2273 -0.5516
vn 0.5857 0.0841 -0.8062
vn 0.9477 0.0841 0.3079
vn 0.0000 0.0841 0.9965
vn -0.9477 0.0841 0.3079
vn -0.5857 0.0841 -0.8062
vn -0.9434 0.1263 -0.3065
vn -0.9735 0.2273 -0.0255
vn -0.5831 0.1263 0.8025
vn -0.3251 0.2273 0.9180
vn 0.5831 0.1263 0.8025
vn 0.7726 0.2273 0.5929
vn 0.9434 0.1263 -0.3065
vn 0.8026 0.2273 -0.5516
vn 0.0000 0.1263 -0.9920
vn -0.2765 0.2273 -0.9337
vn -0.6703 0.5071 -0.5418
vn -0.7166 0.6575 -0.2328
vn -0.8607 0.5071 0.0443
vn -0.7224 0.5071 0.4701
vn -0.4429 0.6575 0.6095
vn -0.2239 0.5071 0.8323
vn 0.2239 0.5071 0.8323
vn 0.4429 0.6575 0.6095
vn 0.7224 0.5071 0.4701
vn -0.3081 0.5071 -0.8049
vn 0.0000 0.6575 -0.7534
vn 0.0000 0.8848 -0.4660
vn 0.8607 0.5071 0.0443
vn 0.7166 0.6575 -0.2328
vn 0.6703 0.5071 -0.5418
g Icosphere_Icosphere_Gold
usemtl Gold
s off
f 94/1/1 32/2/1 91/3/1
f 27/4/2 33/5/2 35/6/2
f 32/2/3 92/7/3 91/3/3
f 92/7/4 39/8/4 93/9/4
f 39/8/5 95/10/5 93/9/5
f 27/4/6 65/11/6 42/12/6
f 28/13/7 62/14/7 44/15/7
f 29/16/8 59/17/8 46/18/8
f 30/19/9 56/20/9 48/21/9
f 31/22/10 53/23/10 50/24/10
f 27/4/11 42/12/11 45/25/11
f 28/13/12 44/15/12 47/26/12
f 29/16/13 46/18/13 49/27/13
f 30/28/14 48/29/14 51/30/14
f 31/31/15 50/32/15 43/33/15
f 50/24/16 53/23/16 52/34/16
f 41/35/17 51/30/17 54/36/17
f 48/21/18 56/20/18 55/37/18
f 29/16/19 57/38/19 40/39/19
f 46/18/20 59/17/20 58/40/20
f 28/41/21 60/42/21 38/43/21
f 44/15/22 62/14/22 61/44/22
f 27/45/23 63/46/23 34/47/23
f 42/12/24 65/11/24 64/48/24
f 35/6/25 43/33/25 66/49/25
f 36/50/26 41/35/26 31/22/26
f 36/51/27 39/8/27 41/52/27
f 39/53/28 30/28/28 41/35/28
f 39/8/29 40/54/29 30/55/29
f 39/8/30 37/56/30 40/54/30
f 37/57/31 29/16/31 40/39/31
f 37/57/32 38/43/32 29/16/32
f 37/56/33 32/2/33 38/58/33
f 32/2/34 28/59/34 38/58/34
f 35/6/35 36/60/35 31/31/35
f 35/61/36 33/62/36 36/51/36
f 32/63/37 34/47/37 28/13/37
f 32/2/38 33/62/38 34/64/38
f 33/65/39 27/45/39 34/47/39
f 17/66/40 42/67/40 64/68/40
f 18/69/40 50/70/40 25/71/40
f 25/71/40 50/70/40 52/72/40
f 23/73/40 51/74/40 48/75/40
f 23/73/40 48/75/40 55/76/40
f 24/77/40 46/78/40 21/79/40
f 21/79/40 46/78/40 58/80/40
f 19/81/40 47/82/40 44/83/40
f 19/81/40 44/83/40 61/84/40
f 17/66/40 45/85/40 42/67/40
f 64/48/24 66/49/24 43/33/24
f 71/86/20 59/17/20 38/43/20
f 59/17/20 72/87/20 58/40/20
f 61/44/22 63/46/22 45/88/22
f 67/89/18 56/20/18 40/39/18
f 58/40/20 60/42/20 47/90/20
f 57/38/18 67/89/18 40/39/18
f 55/37/18 57/38/18 49/27/18
f 57/38/18 68/91/18 70/92/18
f 52/34/16 54/36/16 51/30/16
f 68/91/18 56/20/18 69/93/18
f 60/42/20 72/87/20 74/94/20
f 60/42/20 71/86/20 38/43/20
f 75/95/22 62/14/22 34/47/22
f 63/46/22 75/95/22 34/47/22
f 63/46/22 76/96/22 78/97/22
f 62/14/22 76/96/22 61/44/22
f 65/11/24 80/98/24 64/48/24
f 66/49/24 80/98/24 82/99/24
f 66/49/24 79/100/24 35/6/24
f 79/100/24 65/11/24 35/6/24
f 83/101/16 53/23/16 41/35/16
f 54/36/16 83/101/16 41/35/16
f 54/36/16 84/102/16 86/103/16
f 53/23/16 84/102/16 52/34/16
f 94/1/41 36/51/41 33/62/41
f 91/104/42 99/105/42 94/106/42
f 93/107/43 97/108/43 92/109/43
f 94/110/44 100/111/44 95/112/44
f 91/113/45 97/108/45 96/114/45
f 93/115/46 100/116/46 98/117/46
f 96/118/47 105/119/47 99/120/47
f 101/121/48 99/120/48 105/119/48
f 101/121/49 100/122/49 99/120/49
f 100/122/50 101/121/50 102/123/50
f 100/122/51 102/123/51 98/124/51
f 103/125/52 98/124/52 102/123/52
f 98/124/53 103/125/53 97/126/53
f 97/126/54 103/125/54 104/127/54
f 97/126/55 104/127/55 96/118/55
f 105/119/56 96/118/56 104/127/56
f 102/123/57 109/128/57 103/125/57
f 110/129/58 103/125/58 109/128/58
f 110/129/59 104/127/59 103/125/59
f 104/127/60 110/129/60 111/130/60
f 104/127/61 111/130/61 105/119/61
f 105/119/62 111/130/62 107/131/62
f 105/119/63 107/131/63 101/121/63
f 101/121/64 107/131/64 108/132/64
f 101/121/65 108/132/65 102/123/65
f 102/123/66 108/132/66 109/128/66
f 108/133/25 106/134/25 109/135/25
f 109/135/25 106/134/25 110/136/25
f 111/137/25 110/136/25 106/134/25
f 107/138/25 111/137/25 106/134/25
f 108/133/25 107/138/25 106/134/25
f 94/1/1 33/62/1 32/2/1
f 32/2/3 37/56/3 92/7/3
f 92/7/4 37/56/4 39/8/4
f 39/8/5 36/51/5 95/10/5
f 27/4/6 35/6/6 65/11/6
f 28/13/7 34/47/7 62/14/7
f 29/16/8 38/43/8 59/17/8
f 30/19/9 40/39/9 56/20/9
f 31/22/10 41/35/10 53/23/10
f 41/35/67 30/28/67 51/30/67
f 29/16/19 49/27/19 57/38/19
f 28/41/21 47/90/21 60/42/21
f 27/45/23 45/88/23 63/46/23
f 35/6/68 31/31/68 43/33/68
f 43/139/40 18/69/40 64/68/40
f 18/69/40 17/66/40 64/68/40
f 18/69/40 43/139/40 50/70/40
f 51/74/40 26/140/40 52/72/40
f 26/140/40 25/71/40 52/72/40
f 23/73/40 26/140/40 51/74/40
f 49/141/40 24/77/40 55/76/40
f 24/77/40 23/73/40 55/76/40
f 24/77/40 49/141/40 46/78/40
f 47/82/40 22/142/40 58/80/40
f 22/142/40 21/79/40 58/80/40
f 19/81/40 22/142/40 47/82/40
f 45/85/40 20/143/40 61/84/40
f 20/143/40 19/81/40 61/84/40
f 17/66/40 20/143/40 45/85/40
f 71/86/20 73/144/20 59/17/20
f 59/17/20 73/144/20 72/87/20
f 67/89/18 69/93/18 56/20/18
f 57/38/18 70/92/18 67/89/18
f 57/38/18 55/37/18 68/91/18
f 68/91/18 55/37/18 56/20/18
f 60/42/20 58/40/20 72/87/20
f 60/42/20 74/94/20 71/86/20
f 75/95/22 77/145/22 62/14/22
f 63/46/22 78/97/22 75/95/22
f 63/46/22 61/44/22 76/96/22
f 62/14/22 77/145/22 76/96/22
f 65/11/24 81/146/24 80/98/24
f 66/49/24 64/48/24 80/98/24
f 66/49/24 82/99/24 79/100/24
f 79/100/24 81/146/24 65/11/24
f 83/101/16 85/147/16 53/23/16
f 54/36/16 86/103/16 83/101/16
f 54/36/16 52/34/16 84/102/16
f 53/23/16 85/147/16 84/102/16
f 94/1/41 95/10/41 36/51/41
f 91/104/42 96/148/42 99/105/42
f 93/107/43 98/149/43 97/108/43
f 94/110/44 99/150/44 100/111/44
f 91/113/45 92/109/45 97/108/45
f 93/115/46 95/151/46 100/116/46
g Icosphere_Icosphere_Sapphire
usemtl Sapphire
f 86/152/69 84/153/69 87/154/69
f 82/155/70 80/156/70 90/157/70
f 67/158/71 70/159/71 88/160/71
f 72/161/72 73/162/72 89/163/72
f 85/164/73 83/165/73 87/154/73
f 84/153/74 85/164/74 87/154/74
f 83/165/75 86/152/75 87/154/75
f 68/166/76 69/167/76 88/160/76
f 69/167/77 67/158/77 88/160/77
f 70/159/78 68/166/78 88/160/78
f 71/168/79 74/169/79 89/163/79
f 73/162/80 71/168/80 89/163/80
f 74/169/81 72/161/81 89/163/81
f 81/170/82 79/171/82 90/157/82
f 80/156/83 81/170/83 90/157/83
f 79/171/84 82/155/84 90/157/84
f 115/172/85 113/173/85 116/174/85
f 114/175/86 112/176/86 116/174/86
f 113/173/87 114/175/87 116/174/87
f 112/176/88 115/172/88 116/174/88
g Icosphere_Icosphere_Bronze
usemtl Bronze
f 1/177/89 7/178/89 8/179/89
f 2/180/90 10/181/90 8/179/90
f 1/177/91 12/182/91 7/178/91
f 1/177/92 14/183/92 12/182/92
f 1/177/93 11/184/93 14/183/93
f 2/180/94 17/185/94 10/181/94
f 3/186/95 19/187/95 9/188/95
f 4/189/96 21/190/96 13/191/96
f 5/192/97 23/193/97 15/194/97
f 6/195/98 25/196/98 16/197/98
f 2/180/99 20/198/99 17/185/99
f 3/186/100 22/199/100 19/187/100
f 4/189/101 24/200/101 21/190/101
f 5/192/102 26/201/102 23/193/102
f 6/195/103 18/202/103 25/196/103
f 25/196/104 26/201/104 16/197/104
f 16/197/105 26/201/105 5/192/105
f 23/193/106 24/200/106 15/194/106
f 15/194/107 24/200/107 4/189/107
f 21/190/108 22/199/108 13/191/108
f 13/191/109 22/199/109 3/186/109
f 19/187/110 20/198/110 9/188/110
f 9/188/111 20/198/111 2/180/111
f 17/185/112 18/202/112 10/181/112
f 10/181/113 18/202/113 6/195/113
f 11/184/114 6/195/114 16/197/114
f 11/184/115 16/197/115 14/183/115
f 14/183/116 16/197/116 5/192/116
f 14/183/117 5/192/117 15/194/117
f 14/183/118 15/194/118 12/182/118
f 12/182/119 15/194/119 4/189/119
f 12/182/120 4/189/120 13/191/120
f 12/182/121 13/191/121 7/178/121
f 7/178/122 13/191/122 3/186/122
f 10/181/123 6/195/123 11/184/123
f 10/181/124 11/184/124 8/179/124
f 8/179/125 11/184/125 1/177/125
f 7/178/126 3/186/126 9/188/126
f 7/178/127 9/188/127 8/179/127
f 8/179/128 9/188/128 2/180/128
