# Blender v2.79 (sub 0) OBJ File: 'spikes.blend'
# www.blender.org
mtllib spikes-collision.mtl
o Plane
v -1.000000 2.000000 1.000000
v 1.000000 2.000000 1.000000
v -1.000000 2.000000 -1.000000
v 1.000000 2.000000 -1.000000
v -1.000000 0.000000 1.000000
v 1.000000 0.000000 1.000000
v -1.000000 0.000000 -1.000000
v 1.000000 0.000000 -1.000000
v 1.000000 0.666667 1.000000
v 1.000000 1.333333 1.000000
v 1.000000 1.333333 -1.000000
v 1.000000 0.666667 -1.000000
v -1.000000 0.666667 -1.000000
v -1.000000 1.333333 -1.000000
v -1.000000 0.666667 1.000000
v -1.000000 1.333333 1.000000
vt 0.296882 0.483069
vt 0.116452 0.644944
vt 0.116908 0.464243
vt 0.794455 0.000168
vt 0.296882 0.107065
vt 0.826501 0.375836
vt 0.413502 0.000168
vt 0.530242 0.088239
vt 0.445548 0.375836
vt 0.529786 0.268939
vt 0.710216 0.107065
vt 0.248160 0.999832
vt 0.495816 0.752176
vt 0.495816 0.999832
vt 0.000168 0.999832
vt 0.247824 0.752176
vt 0.247824 0.999832
vt 0.296427 0.663769
vt 0.296427 0.287765
vt 0.709761 0.287765
vt 0.116908 0.088239
vt 0.116452 0.268939
vt 0.248160 0.752176
vt 0.000168 0.752176
vn 0.0000 1.0000 0.0000
vn 1.0000 0.0000 0.0000
vn -1.0000 0.0000 0.0000
vn 0.0000 0.0000 -1.0000
vn 0.0000 0.0000 1.0000
g Plane_Plane_Material
usemtl Material
s off
f 2/1/1 3/2/1 1/3/1
f 9/4/2 8/5/2 12/6/2
f 15/7/3 16/8/3 13/9/3
f 13/9/4 14/10/4 12/6/4
f 9/4/5 10/11/5 15/7/5
f 14/12/1 10/13/1 11/14/1
f 13/15/1 9/16/1 12/17/1
f 2/1/1 4/18/1 3/2/1
f 4/18/2 2/1/2 10/11/2
f 9/4/2 6/19/2 8/5/2
f 4/18/2 10/11/2 11/20/2
f 10/11/2 9/4/2 11/20/2
f 12/6/2 11/20/2 9/4/2
f 1/3/3 3/2/3 14/10/3
f 13/9/3 7/21/3 5/22/3
f 1/3/3 14/10/3 16/8/3
f 14/10/3 13/9/3 16/8/3
f 5/22/3 15/7/3 13/9/3
f 3/2/4 4/18/4 11/20/4
f 12/6/4 8/5/4 7/21/4
f 3/2/4 11/20/4 14/10/4
f 11/20/4 12/6/4 14/10/4
f 7/21/4 13/9/4 12/6/4
f 2/1/5 1/3/5 16/8/5
f 15/7/5 5/22/5 6/19/5
f 2/1/5 16/8/5 10/11/5
f 16/8/5 15/7/5 10/11/5
f 6/19/5 9/4/5 15/7/5
f 14/12/1 16/23/1 10/13/1
f 13/15/1 15/24/1 9/16/1
