# Blender v2.79 (sub 0) OBJ File: 'ice-trap.blend'
# www.blender.org
mtllib ice-trap.mtl
o Cylinder
v 0.000000 0.100000 0.150000
v 0.086603 0.050000 0.150000
v 0.086603 -0.050000 0.150000
v -0.000000 -0.100000 0.150000
v -0.086603 -0.050000 0.150000
v -0.086603 0.050000 0.150000
v 0.000000 0.125000 0.000000
v 0.000000 0.125000 0.250000
v 0.108253 0.062500 0.000000
v 0.108253 0.062500 0.250000
v 0.108253 -0.062500 -0.000000
v 0.108253 -0.062500 0.250000
v -0.000000 -0.125000 -0.000000
v -0.000000 -0.125000 0.250000
v -0.108253 -0.062500 -0.000000
v -0.108253 -0.062500 0.250000
v -0.108253 0.062500 0.000000
v -0.108253 0.062500 0.250000
v -0.086603 0.050000 0.250000
v -0.086603 -0.050000 0.250000
v 0.086603 0.050000 0.250000
v 0.086603 -0.050000 0.250000
v 0.000000 0.100000 0.250000
v -0.000000 -0.100000 0.250000
vt 0.600300 0.600300
vt 0.699700 0.699700
vt 0.699700 0.600300
vt 0.699700 0.700300
vt 0.600300 0.799700
vt 0.699700 0.799700
vt 0.799700 0.600300
vt 0.700300 0.699700
vt 0.799700 0.699700
vt 0.799700 0.700300
vt 0.700300 0.799700
vt 0.799700 0.799700
vt 0.600300 0.800300
vt 0.699700 0.899700
vt 0.699700 0.800300
vt 0.899700 0.600300
vt 0.800300 0.699700
vt 0.899700 0.699700
vt 0.615646 0.324986
vt 0.875405 0.324986
vt 0.745525 0.399972
vt 0.745525 0.100028
vt 0.875405 0.175014
vt 0.190000 0.600000
vt 0.310000 0.968750
vt 0.310000 0.600000
vt 0.370000 0.968750
vt 0.370000 0.600000
vt 0.310000 0.968750
vt 0.190000 0.600000
vt 0.190000 0.968750
vt 0.130000 0.968750
vt 0.130000 0.600000
vt 0.190000 0.968750
vt 0.175000 0.968750
vt 0.325000 0.031250
vt 0.175000 0.031250
vt 0.400000 0.968750
vt 0.400000 0.031250
vt 0.325000 0.031250
vt 0.325000 0.968750
vt 0.175000 0.031250
vt 0.175000 0.968750
vt 0.100000 0.031250
vt 0.100000 0.968750
vt 0.600300 0.699700
vt 0.600300 0.700300
vt 0.700300 0.600300
vt 0.700300 0.700300
vt 0.600300 0.899700
vt 0.800300 0.600300
vt 0.615646 0.175014
vt 0.310000 0.600000
vt 0.325000 0.968750
vn 0.0000 0.0000 1.0000
vn -1.0000 0.0000 0.0000
vn -0.5000 -0.8660 0.0000
vn 0.5000 -0.8660 0.0000
vn 1.0000 -0.0000 0.0000
vn 0.5000 0.8660 0.0000
vn -0.5000 0.8660 0.0000
g Cylinder_Cylinder_Blue_Metal
usemtl Blue_Metal
s off
f 21/1/1 12/2/1 10/3/1
f 12/4/1 24/5/1 14/6/1
f 8/7/1 21/8/1 10/9/1
f 18/10/1 23/11/1 8/12/1
f 20/13/1 18/14/1 16/15/1
f 14/16/1 20/17/1 16/18/1
f 4/19/1 6/20/1 5/21/1
f 4/19/1 2/22/1 1/23/1
f 3/24/2 21/25/2 2/26/2
f 2/26/3 23/27/3 1/28/3
f 19/29/4 1/28/4 23/27/4
f 5/30/5 19/29/5 20/31/5
f 5/30/6 24/32/6 4/33/6
f 4/33/7 22/34/7 3/24/7
f 16/35/2 17/36/2 15/37/2
f 17/36/7 8/38/7 7/39/7
f 8/38/6 9/40/6 7/39/6
f 10/41/5 11/42/5 9/40/5
f 12/43/4 13/44/4 11/42/4
f 14/45/3 15/37/3 13/44/3
f 21/1/1 22/46/1 12/2/1
f 12/4/1 22/47/1 24/5/1
f 8/7/1 23/48/1 21/8/1
f 18/10/1 19/49/1 23/11/1
f 20/13/1 19/50/1 18/14/1
f 14/16/1 24/51/1 20/17/1
f 4/19/1 1/23/1 6/20/1
f 4/19/1 3/52/1 2/22/1
f 3/24/2 22/34/2 21/25/2
f 2/26/3 21/25/3 23/27/3
f 19/29/4 6/53/4 1/28/4
f 5/30/5 6/53/5 19/29/5
f 5/30/6 20/31/6 24/32/6
f 4/33/7 24/32/7 22/34/7
f 16/35/2 18/54/2 17/36/2
f 17/36/7 18/54/7 8/38/7
f 8/38/6 10/41/6 9/40/6
f 10/41/5 12/43/5 11/42/5
f 12/43/4 14/45/4 13/44/4
f 14/45/3 16/35/3 15/37/3
