# Blender v2.79 (sub 0) OBJ File: ''
# www.blender.org
mtllib readme.mtl
o Plane
v -0.500000 0.500000 -0.000000
v 0.500000 0.500000 -0.000000
v -0.500000 1.500000 0.000000
v 0.500000 1.500000 0.000000
v -0.500000 0.250000 -0.000000
v 0.500000 0.250000 -0.000000
vt 0.999900 0.000100
vt 0.000100 0.999900
vt 0.000100 0.000100
vt 0.999900 0.999900
vt 0.000050 0.750025
vt 0.999950 0.250050
vt 0.999950 0.750025
vt 0.000050 0.250050
vn 0.0000 -0.0000 1.0000
g Plane_Plane_README_Icon
usemtl README_Icon
s off
f 2/1/1 3/2/1 1/3/1
f 2/1/1 4/4/1 3/2/1
g Plane_Plane_README_text
usemtl README_text
f 1/5/1 6/6/1 2/7/1
f 1/5/1 5/8/1 6/6/1
