# Blender v2.79 (sub 0) OBJ File: 'lavafall.blend'
# www.blender.org
mtllib lavafall.mtl
o Cube
v -3.500000 2.000000 -3.500000
v -3.500000 18.000000 -3.500000
v -3.500000 2.000001 3.500000
v -0.000000 0.000002 0.000000
v -0.000000 16.000000 0.000000
v -3.500000 18.000000 3.499999
v 3.500000 18.000000 3.499999
v 3.500000 2.000002 3.499999
v 3.500000 18.000000 -3.499999
v 3.500000 2.000005 -3.499999
vt 0.000000 1.642857
vt 1.000000 -0.642857
vt 0.000000 -0.642857
vt 1.000000 1.642857
vt 0.500000 1.142857
vt 0.000000 -0.642857
vt 1.000000 -0.642857
vt 0.500000 -1.142857
vt 1.000000 1.642857
vt 0.000000 1.642857
vt 0.000000 -0.642857
vt 1.000000 -0.642857
vt 1.000000 1.642857
vt 0.000000 1.642857
vt 0.000000 -0.642857
vt 1.000000 -0.642857
vt 1.000000 1.642857
vt 0.000000 1.642857
vn 0.0000 0.0000 -1.0000
vn -0.0000 0.8682 0.4961
vn -0.4961 -0.8682 0.0000
vn 0.0000 -0.8682 -0.4961
vn 0.4961 0.8682 0.0000
vn -1.0000 0.0000 0.0000
vn 0.0000 -0.8682 0.4961
vn 0.0000 0.8682 -0.4961
vn 0.0000 0.0000 1.0000
vn 0.4961 -0.8682 -0.0000
vn -0.4961 0.8682 0.0000
vn 1.0000 0.0000 0.0000
g Cube_Cube_Lava
usemtl Lava
s off
f 2/1/1 10/2/1 1/3/1
f 9/4/2 2/1/2 5/5/2
f 3/6/3 1/7/3 4/8/3
f 1/3/4 10/2/4 4/8/4
f 2/9/5 6/10/5 5/5/5
f 6/10/6 1/7/6 3/6/6
f 8/11/7 3/12/7 4/8/7
f 6/13/8 7/14/8 5/5/8
f 7/14/9 3/12/9 8/11/9
f 10/15/10 8/16/10 4/8/10
f 7/17/11 9/18/11 5/5/11
f 9/18/12 8/16/12 10/15/12
f 2/1/1 9/4/1 10/2/1
f 6/10/6 2/9/6 1/7/6
f 7/14/9 6/13/9 3/12/9
f 9/18/12 7/17/12 8/16/12
