# Blender v2.79 (sub 0) OBJ File: 'sign.blend'
# www.blender.org
mtllib sign.mtl
o Plane
v -1.500000 2.687500 0.250000
v -1.500000 1.187500 0.250000
v 1.500000 2.687500 0.250000
v 1.500000 1.187500 0.250000
v -1.312500 2.875000 0.250000
v 1.312500 2.875000 0.250000
v -1.312500 1.000000 0.250000
v 1.312500 1.000000 0.250000
v -1.500000 2.687500 -0.250000
v -1.500000 1.187500 -0.250000
v 1.500000 2.687500 -0.250000
v 1.500000 1.187500 -0.250000
v -1.312500 2.875000 -0.250000
v 1.312500 2.875000 -0.250000
v -1.312500 1.000000 -0.250000
v 1.312500 1.000000 -0.250000
vt 0.125000 0.843750
vt 0.828125 0.937500
vt 0.171875 0.937500
vt 0.875000 0.843750
vt 0.125000 0.093750
vt 0.171875 0.000000
vt 0.875000 0.093750
vt 0.828125 0.000000
vt 0.828125 0.937500
vt 0.125000 0.843750
vt 0.125000 0.093750
vt 0.875000 0.843750
vt 0.171875 0.000000
vt 0.875000 0.093750
vt 0.171875 0.937500
vt 0.828125 0.000000
vt -0.000000 0.187500
vt 1.000000 0.687500
vt 0.000000 0.687500
vt 0.000001 0.740000
vt 1.000000 0.800000
vt 0.000001 0.800000
vt 0.999999 0.260000
vt 0.000000 0.260000
vt 0.999999 0.200000
vt 0.000000 0.200000
vt 0.000000 0.687500
vt 1.000000 0.187500
vt -0.000001 0.187500
vt 0.000000 0.260000
vt 0.999999 0.200000
vt 0.000000 0.200000
vt 0.000001 0.740000
vt 0.999999 0.260000
vt 1.000000 0.800000
vt 0.000001 0.800000
vt 1.000000 0.187500
vt 1.000000 0.740000
vt 1.000000 0.687500
vt 1.000000 0.740000
vn -0.0000 0.0000 1.0000
vn 0.0000 -0.0000 -1.0000
vn 0.0000 1.0000 0.0000
vn 0.7071 0.7071 0.0000
vn 1.0000 0.0000 0.0000
vn 0.7071 -0.7071 0.0000
vn 0.0000 -1.0000 0.0000
vn -0.7071 -0.7071 0.0000
vn -1.0000 0.0000 0.0000
vn -0.7071 0.7071 0.0000
g Plane_Plane_Sign_Face
usemtl Sign_Face
s off
f 1/1/1 6/2/1 5/3/1
f 3/4/1 2/5/1 7/6/1
f 4/7/1 7/6/1 8/8/1
f 13/9/2 11/10/2 12/11/2
f 12/11/2 9/12/2 13/9/2
f 16/13/2 10/14/2 9/12/2
f 1/1/1 2/5/1 6/2/1
f 3/4/1 6/2/1 2/5/1
f 4/7/1 3/4/1 7/6/1
f 13/9/2 14/15/2 11/10/2
f 12/11/2 16/13/2 9/12/2
f 16/13/2 15/16/2 10/14/2
g Plane_Plane_Sign_Side
usemtl Sign_Side
f 6/17/3 13/18/3 5/19/3
f 3/20/4 14/21/4 6/22/4
f 12/23/5 3/20/5 4/24/5
f 16/25/6 4/24/6 8/26/6
f 7/27/7 16/28/7 8/29/7
f 2/30/8 15/31/8 7/32/8
f 1/33/9 10/34/9 2/30/9
f 13/35/10 1/33/10 5/36/10
f 6/17/3 14/37/3 13/18/3
f 3/20/4 11/38/4 14/21/4
f 12/23/5 11/38/5 3/20/5
f 16/25/6 12/23/6 4/24/6
f 7/27/7 15/39/7 16/28/7
f 2/30/8 10/34/8 15/31/8
f 1/33/9 9/40/9 10/34/9
f 13/35/10 9/40/10 1/33/10
