# Blender v2.79 (sub 0) OBJ File: 'spike-platform.blend'
# www.blender.org
mtllib spike-platform-collision.mtl
o Circle
v 2.562178 3.500000 -2.562177
v 0.937822 3.500000 -3.500000
v -0.937822 3.500000 -3.500000
v -2.562178 3.500000 -2.562178
v -3.500000 3.500000 -0.937822
v -3.500000 3.500000 0.937822
v -2.562178 3.500000 2.562177
v -0.937823 3.500000 3.499999
v 0.937820 3.500000 3.500000
v 2.562176 3.500000 2.562179
v 3.499999 3.500000 0.937824
v 3.500000 3.500000 -0.937819
v 2.562178 0.000000 -2.562177
v 0.937822 0.000000 -3.500000
v -0.937822 0.000000 -3.500000
v -2.562178 0.000000 -2.562178
v -3.500000 0.000000 -0.937822
v -3.500000 0.000000 0.937822
v -2.562178 0.000000 2.562177
v -0.937823 0.000000 3.499999
v 0.937820 0.000000 3.500000
v 2.562176 0.000000 2.562179
v 3.499999 0.000000 0.937824
v 3.500000 0.000000 -0.937819
vt 0.000000 1.500000
vt 2.000000 0.000000
vt 2.000000 1.500000
vt 0.000000 1.500000
vt 2.000000 0.000000
vt 2.000000 1.500000
vt 0.000000 1.500000
vt 2.000000 0.000000
vt 2.000000 1.500000
vt 0.000000 1.500000
vt 2.000000 0.000000
vt 2.000000 1.500000
vt 0.000000 1.500000
vt 2.000000 0.000000
vt 2.000000 1.500000
vt 0.000000 1.500000
vt 2.000000 0.000000
vt 2.000000 1.500000
vt 0.000000 1.500000
vt 2.000000 0.000000
vt 2.000000 1.500000
vt 0.000000 1.500000
vt 2.000000 0.000000
vt 2.000000 1.500000
vt 0.000000 1.500000
vt 2.000000 0.000000
vt 2.000000 1.500000
vt 0.000000 1.500000
vt 2.000000 0.000000
vt 2.000000 1.500000
vt 0.000000 1.500000
vt 2.000000 0.000000
vt 2.000000 1.500000
vt 0.000000 1.500000
vt 2.000000 0.000000
vt 2.000000 1.500000
vt 0.000000 0.000000
vt 0.000000 0.000000
vt 0.000000 0.000000
vt 0.000000 0.000000
vt 0.000000 0.000000
vt 0.000000 0.000000
vt 0.000000 0.000000
vt 0.000000 0.000000
vt 0.000000 0.000000
vt 0.000000 0.000000
vt 0.000000 0.000000
vt 0.000000 0.000000
vt -3.499990 1.571795
vt 1.571792 -3.499990
vt 3.428196 3.428195
vt 1.571792 -3.499990
vt -2.428197 -2.428194
vt -0.571793 4.499990
vt 1.571795 4.499990
vt -0.571793 4.499990
vt -2.428195 3.428196
vt -3.499990 -0.571793
vt -2.428197 -2.428194
vt -0.571796 -3.499989
vt 3.428194 -2.428197
vt 4.499989 -0.571797
vt 4.499990 1.571791
vt 1.571795 4.499990
vt 3.428196 3.428195
vt 4.499990 1.571791
vt 4.499989 -0.571797
vt 3.428194 -2.428197
vt -0.571796 -3.499989
vt -3.499990 -0.571793
vt -3.499990 1.571795
vt -2.428195 3.428196
vn 0.0000 0.0000 -1.0000
vn 0.5000 0.0000 0.8660
vn -0.8660 0.0000 0.5000
vn -0.5000 0.0000 -0.8660
vn 0.8660 0.0000 0.5000
vn -0.5000 0.0000 0.8660
vn -0.8660 0.0000 -0.5000
vn 1.0000 0.0000 0.0000
vn 0.5000 0.0000 -0.8660
vn -0.0000 0.0000 1.0000
vn -1.0000 0.0000 0.0000
vn 0.8660 0.0000 -0.5000
vn 0.0000 1.0000 -0.0000
vn 0.0000 -1.0000 0.0000
g Circle_Circle_Metal
usemtl Metal
s off
f 2/1/1 15/2/1 3/3/1
f 9/4/2 22/5/2 10/6/2
f 6/7/3 19/8/3 7/9/3
f 3/10/4 16/11/4 4/12/4
f 10/13/5 23/14/5 11/15/5
f 7/16/6 20/17/6 8/18/6
f 4/19/7 17/20/7 5/21/7
f 11/22/8 24/23/8 12/24/8
f 1/25/9 14/26/9 2/27/9
f 8/28/10 21/29/10 9/30/10
f 5/31/11 18/32/11 6/33/11
f 12/34/12 13/35/12 1/36/12
f 2/1/1 14/37/1 15/2/1
f 9/4/2 21/38/2 22/5/2
f 6/7/3 18/39/3 19/8/3
f 3/10/4 15/40/4 16/11/4
f 10/13/5 22/41/5 23/14/5
f 7/16/6 19/42/6 20/17/6
f 4/19/7 16/43/7 17/20/7
f 11/22/8 23/44/8 24/23/8
f 1/25/9 13/45/9 14/26/9
f 8/28/10 20/46/10 21/29/10
f 5/31/11 17/47/11 18/32/11
f 12/34/12 24/48/12 13/35/12
g Circle_Circle_Metal_3
usemtl Metal_3
f 5/49/13 9/50/13 1/51/13
f 21/52/14 19/53/14 15/54/14
f 1/51/13 2/55/13 3/56/13
f 3/56/13 4/57/13 5/49/13
f 5/49/13 6/58/13 9/50/13
f 6/58/13 7/59/13 9/50/13
f 7/59/13 8/60/13 9/50/13
f 9/50/13 10/61/13 11/62/13
f 11/62/13 12/63/13 9/50/13
f 12/63/13 1/51/13 9/50/13
f 1/51/13 3/56/13 5/49/13
f 15/54/14 14/64/14 13/65/14
f 13/65/14 24/66/14 23/67/14
f 23/67/14 22/68/14 21/52/14
f 21/52/14 20/69/14 19/53/14
f 19/53/14 18/70/14 15/54/14
f 18/70/14 17/71/14 15/54/14
f 17/71/14 16/72/14 15/54/14
f 15/54/14 13/65/14 23/67/14
f 23/67/14 21/52/14 15/54/14
