# Blender v2.79 (sub 0) OBJ File: 'press.blend'
# www.blender.org
mtllib press-collision.mtl
o Plane
v -2.000000 0.000000 -1.000000
v -2.000000 0.000000 1.000000
v 2.000000 0.000000 -1.000000
v 2.000000 0.000000 1.000000
v -1.000000 0.000000 2.000000
v 1.000000 0.000000 2.000000
v -1.000000 0.000001 -2.000000
v 1.000000 0.000001 -2.000000
v -2.000000 9.000000 1.000000
v -2.000000 9.000000 -1.000000
v 2.000000 9.000000 1.000000
v 2.000000 9.000000 -1.000000
v -1.000000 9.000000 -2.000000
v 1.000000 9.000000 -2.000000
v -1.000000 9.000000 2.000000
v 1.000000 9.000000 2.000000
vt 0.000000 0.000000
vt 0.000000 0.000000
vt 0.000000 0.000000
vt 0.000000 0.000000
vt 0.000000 0.000000
vt 0.000000 0.000000
vt 0.000000 0.000000
vt 0.000000 0.000000
vt 0.000000 0.000000
vt 0.000000 0.000000
vt 0.000000 0.000000
vt 0.000000 0.000000
vt 0.000000 0.000000
vt 0.000000 0.000000
vt 0.000000 0.000000
vt 0.000000 0.000000
vn 0.0000 -1.0000 -0.0000
vn 0.0000 1.0000 0.0000
vn -1.0000 0.0000 0.0000
vn -0.7071 0.0000 0.7071
vn 0.0000 0.0000 1.0000
vn 0.7071 0.0000 0.7071
vn 1.0000 -0.0000 0.0000
vn 0.7071 -0.0000 -0.7071
vn 0.0000 -0.0000 -1.0000
vn -0.7071 0.0000 -0.7071
g Plane_Plane_Glass
usemtl Glass
s off
f 2/1/1 6/2/1 5/3/1
f 8/4/1 1/5/1 7/6/1
f 2/1/1 3/7/1 4/8/1
f 10/9/2 14/10/2 13/11/2
f 16/12/2 9/13/2 15/14/2
f 10/9/2 11/15/2 12/16/2
f 9/13/3 1/5/3 2/1/3
f 5/3/4 9/13/4 2/1/4
f 6/2/5 15/14/5 5/3/5
f 4/8/6 16/12/6 6/2/6
f 3/7/7 11/15/7 4/8/7
f 14/10/8 3/7/8 8/4/8
f 13/11/9 8/4/9 7/6/9
f 10/9/10 7/6/10 1/5/10
f 2/1/1 4/8/1 6/2/1
f 8/4/1 3/7/1 1/5/1
f 2/1/1 1/5/1 3/7/1
f 10/9/2 12/16/2 14/10/2
f 16/12/2 11/15/2 9/13/2
f 10/9/2 9/13/2 11/15/2
f 9/13/3 10/9/3 1/5/3
f 5/3/4 15/14/4 9/13/4
f 6/2/5 16/12/5 15/14/5
f 4/8/6 11/15/6 16/12/6
f 3/7/7 12/16/7 11/15/7
f 14/10/8 12/16/8 3/7/8
f 13/11/9 14/10/9 8/4/9
f 10/9/10 13/11/10 7/6/10
