# Blender v2.79 (sub 0) OBJ File: 'press.blend'
# www.blender.org
mtllib press-glass.mtl
o Plane.002_Plane.001
v -1.000000 0.500000 2.000000
v 1.000000 0.500000 2.000000
v -1.000000 0.500000 -2.000000
v 1.000000 0.500000 -2.000000
v -2.000000 0.500000 1.000000
v -2.000000 0.500000 -1.000000
v 2.000000 0.500000 1.000000
v 2.000000 0.500000 -1.000000
v -1.000000 8.500000 2.000000
v 1.000000 8.500000 2.000000
v -1.000000 8.500000 -2.000000
v 1.000000 8.500000 -2.000000
v -2.000000 8.500000 1.000000
v -2.000000 8.500000 -1.000000
v 2.000000 8.500000 1.000000
v 2.000000 8.500000 -1.000000
vt 0.001001 0.001001
vt 0.332332 0.332332
vt 0.332332 0.001001
vt 0.001001 0.334334
vt 0.332332 0.665666
vt 0.332332 0.334334
vt 0.334334 0.001001
vt 0.665666 0.332332
vt 0.665666 0.001001
vt 0.334334 0.334334
vt 0.665666 0.665666
vt 0.665666 0.334334
vt 0.001001 0.667668
vt 0.332332 0.998999
vt 0.332332 0.667668
vt 0.667668 0.001001
vt 0.998999 0.332332
vt 0.998999 0.001001
vt 0.334334 0.667668
vt 0.665666 0.998999
vt 0.665666 0.667668
vt 0.667668 0.334334
vt 0.998999 0.665666
vt 0.998999 0.334334
vt 0.001001 0.332332
vt 0.001001 0.665666
vt 0.334334 0.332332
vt 0.334334 0.665666
vt 0.001001 0.998999
vt 0.667668 0.332332
vt 0.334334 0.998999
vt 0.667668 0.665666
vn 1.0000 0.0000 0.0000
vn 0.7071 0.0000 -0.7071
vn 0.0000 0.0000 -1.0000
vn -0.7071 0.0000 -0.7071
vn -1.0000 0.0000 0.0000
vn -0.7071 0.0000 0.7071
vn 0.0000 0.0000 1.0000
vn 0.7071 0.0000 0.7071
g Plane.002_Plane.001_Glass
usemtl Glass
s off
f 16/1/1 7/2/1 8/3/1
f 4/4/2 16/5/2 8/6/2
f 11/7/3 4/8/3 3/9/3
f 14/10/4 3/11/4 6/12/4
f 13/13/5 6/14/5 5/15/5
f 1/16/6 13/17/6 5/18/6
f 10/19/7 1/20/7 2/21/7
f 15/22/8 2/23/8 7/24/8
f 16/1/1 15/25/1 7/2/1
f 4/4/2 12/26/2 16/5/2
f 11/7/3 12/27/3 4/8/3
f 14/10/4 11/28/4 3/11/4
f 13/13/5 14/29/5 6/14/5
f 1/16/6 9/30/6 13/17/6
f 10/19/7 9/31/7 1/20/7
f 15/22/8 10/32/8 2/23/8
