# Blender v2.79 (sub 0) OBJ File: 'press.blend'
# www.blender.org
mtllib press-solid.mtl
o Plane
v -2.000000 0.500000 -1.000000
v -2.000000 0.500000 1.000000
v 2.000000 0.500000 -1.000000
v 2.000000 0.500000 1.000000
v -1.000000 0.500000 2.000000
v 1.000000 0.500000 2.000000
v -1.000000 0.500001 -2.000000
v 1.000000 0.500001 -2.000000
v -2.000000 0.000000 -1.000000
v -2.000000 0.000000 1.000000
v 2.000000 0.000000 -1.000000
v 2.000000 0.000000 1.000000
v -1.000000 0.000000 2.000000
v 1.000000 0.000000 2.000000
v -1.000000 0.000001 -2.000000
v 1.000000 0.000001 -2.000000
v 0.000000 0.000001 -2.000000
v 0.000000 0.500001 -2.000000
v 2.000000 0.000000 -0.000000
v 2.000000 0.500000 0.000000
v 0.000000 0.500000 2.000000
v 0.000000 0.000000 2.000000
v -2.000000 0.500000 0.000000
v -2.000000 0.000000 -0.000000
v 0.000000 0.500000 -1.687500
v 0.000000 8.500000 -1.687500
v 0.375000 0.500000 -1.587019
v 0.375000 8.500000 -1.587019
v 0.649519 0.500000 -1.312500
v 0.649519 8.500000 -1.312500
v 0.750000 0.500000 -0.937500
v 0.750000 8.500000 -0.937500
v 0.649519 0.500000 -0.562500
v 0.649519 8.500000 -0.562500
v 0.375000 0.500000 -0.287981
v 0.375000 8.500000 -0.287981
v 0.000000 0.500000 -0.187500
v 0.000000 8.500000 -0.187500
v -0.375000 0.500000 -0.287981
v -0.375000 8.500000 -0.287981
v -0.649519 0.500000 -0.562500
v -0.649519 8.500000 -0.562500
v -0.750000 0.500000 -0.937500
v -0.750000 8.500000 -0.937500
v -0.649519 0.500000 -1.312500
v -0.649519 8.500000 -1.312500
v -0.375000 0.500000 -1.587019
v -0.375000 8.500000 -1.587019
v 0.000000 0.500000 0.187500
v 0.000000 8.500000 0.187500
v 0.375000 0.500000 0.287981
v 0.375000 8.500000 0.287981
v 0.649519 0.500000 0.562500
v 0.649519 8.500000 0.562500
v 0.750000 0.500000 0.937500
v 0.750000 8.500000 0.937500
v 0.649519 0.500000 1.312500
v 0.649519 8.500000 1.312500
v 0.375000 0.500000 1.587019
v 0.375000 8.500000 1.587019
v 0.000000 0.500000 1.687500
v 0.000000 8.500000 1.687500
v -0.375000 0.500000 1.587019
v -0.375000 8.500000 1.587019
v -0.649519 0.500000 1.312500
v -0.649519 8.500000 1.312500
v -0.750000 0.500000 0.937500
v -0.750000 8.500000 0.937500
v -0.649519 0.500000 0.562500
v -0.649519 8.500000 0.562500
v -0.375000 0.500000 0.287981
v -0.375000 8.500000 0.287981
v -2.000000 8.500000 1.000000
v -2.000000 8.500000 -1.000000
v 2.000000 8.500000 1.000000
v 2.000000 8.500000 -1.000000
v -1.000000 8.500000 -2.000000
v 1.000000 8.500000 -2.000000
v -1.000000 8.500000 2.000000
v 1.000000 8.500000 2.000000
v -2.000000 9.000000 1.000000
v -2.000000 8.999999 -1.000000
v 2.000000 9.000000 1.000000
v 2.000000 8.999999 -1.000000
v -1.000000 8.999999 -2.000000
v 1.000000 8.999999 -2.000000
v -1.000000 9.000000 2.000000
v 1.000000 9.000000 2.000000
v 0.000000 9.000000 2.000000
v 0.000000 8.500000 2.000000
v 2.000000 9.000000 0.000000
v 2.000000 8.500000 -0.000000
v 0.000000 8.500000 -2.000000
v 0.000000 8.999999 -2.000000
v -2.000000 8.500000 -0.000000
v -2.000000 9.000000 0.000000
vt 1.000000 0.037500
vt 0.750000 0.012500
vt 0.500000 0.012500
vt 0.500000 0.112500
vt 1.000000 0.087500
vt 0.000000 0.087500
vt 0.000000 0.062500
vt 1.000000 0.062500
vt 0.500000 0.987500
vt 1.000000 0.962500
vt 0.000000 0.962500
vt 1.000000 0.912500
vt 0.750000 0.887500
vt 0.500000 0.887500
vt 1.000000 0.937500
vt 0.000000 0.912500
vt 0.000000 0.937500
vt 0.000000 0.000000
vt 3.000000 1.000000
vt 3.000000 0.000000
vt -0.000000 1.000000
vt 2.000000 0.000000
vt 0.000000 -0.000000
vt 3.000000 1.000000
vt 0.000000 0.000000
vt 3.000000 0.000000
vt 2.000000 1.000000
vt -0.000000 -0.000000
vt 2.000000 0.000000
vt -0.000000 1.000000
vt 3.000000 0.000000
vt 0.000000 -0.000000
vt -0.000000 1.000000
vt 2.000000 0.000000
vt 0.000000 -0.000000
vt 3.000000 0.000000
vt 0.000000 1.000000
vt 0.000000 0.000000
vt 2.000000 1.000000
vt -0.000000 -0.000000
vt 2.000000 0.000000
vt 2.000000 1.000000
vt 2.000000 0.000000
vt -0.000000 1.000000
vt 0.000000 -0.000000
vt 2.000000 1.000000
vt 2.000000 0.000000
vt -0.000000 1.000000
vt 0.000000 -0.000000
vt 0.662800 0.162800
vt 0.737200 0.237200
vt 0.737200 0.162800
vt 0.662800 0.237800
vt 0.737200 0.312200
vt 0.737200 0.237800
vt 0.737800 0.162800
vt 0.812200 0.237200
vt 0.812200 0.162800
vt 0.737800 0.237800
vt 0.812200 0.312200
vt 0.812200 0.237800
vt 0.662800 0.312800
vt 0.737200 0.387200
vt 0.737200 0.312800
vt 0.812800 0.162800
vt 0.887200 0.237200
vt 0.887200 0.162800
vt 0.737800 0.312800
vt 0.812200 0.387200
vt 0.812200 0.312800
vt 0.812800 0.237800
vt 0.887200 0.312200
vt 0.887200 0.237800
vt 0.812800 0.312800
vt 0.887200 0.387200
vt 0.887200 0.312800
vt 0.662800 0.387800
vt 0.737200 0.462200
vt 0.737200 0.387800
vt 0.887800 0.162800
vt 0.962200 0.237200
vt 0.962200 0.162800
vt 0.737800 0.387800
vt 0.812200 0.462200
vt 0.812200 0.387800
vt 0.662800 0.162800
vt 0.737200 0.237200
vt 0.737200 0.162800
vt 0.662800 0.237800
vt 0.737200 0.312200
vt 0.737200 0.237800
vt 0.737800 0.162800
vt 0.812200 0.237200
vt 0.812200 0.162800
vt 0.737800 0.237800
vt 0.812200 0.312200
vt 0.812200 0.237800
vt 0.662800 0.312800
vt 0.737200 0.387200
vt 0.737200 0.312800
vt 0.812800 0.162800
vt 0.887200 0.237200
vt 0.887200 0.162800
vt 0.737800 0.312800
vt 0.812200 0.387200
vt 0.812200 0.312800
vt 0.812800 0.237800
vt 0.887200 0.312200
vt 0.887200 0.237800
vt 0.812800 0.312800
vt 0.887200 0.387200
vt 0.887200 0.312800
vt 0.662800 0.387800
vt 0.737200 0.462200
vt 0.737200 0.387800
vt 0.887800 0.162800
vt 0.962200 0.237200
vt 0.962200 0.162800
vt 0.737800 0.387800
vt 0.812200 0.462200
vt 0.812200 0.387800
vt 1.000000 0.037500
vt 0.750000 0.012500
vt 0.500000 0.012500
vt 0.500000 0.112500
vt 1.000000 0.087500
vt 0.000000 0.087500
vt 0.000000 0.062500
vt 1.000000 0.062500
vt 0.500000 0.987500
vt 1.000000 0.962500
vt 0.000000 0.962500
vt 1.000000 0.912500
vt 0.750000 0.887500
vt 0.500000 0.887500
vt 1.000000 0.937500
vt 0.000000 0.912500
vt 0.000000 0.937500
vt 0.000000 0.000000
vt 3.000000 1.000000
vt 3.000000 0.000000
vt 0.000000 -0.000000
vt 2.000000 1.000000
vt 2.000000 0.000000
vt 3.000000 1.000000
vt 0.000000 0.000000
vt 3.000000 0.000000
vt 2.000000 1.000000
vt -0.000000 -0.000000
vt 2.000000 0.000000
vt 0.000000 -0.000000
vt 3.000000 1.000000
vt 3.000000 0.000000
vt 0.000000 -0.000000
vt 2.000000 1.000000
vt 2.000000 0.000000
vt 0.000000 0.000000
vt 3.000000 1.000000
vt 0.000000 1.000000
vt 2.000000 1.000000
vt -0.000000 -0.000000
vt 2.000000 0.000000
vt 2.000000 1.000000
vt 2.000000 0.000000
vt -0.000000 1.000000
vt 0.000000 -0.000000
vt 2.000000 1.000000
vt 2.000000 0.000000
vt -0.000000 1.000000
vt 0.000000 -0.000000
vt 0.250000 0.012500
vt 0.000000 0.037500
vt 0.250000 0.112500
vt 0.750000 0.112500
vt 0.250000 0.987500
vt 0.750000 0.987500
vt 0.250000 0.887500
vt -0.000000 1.000000
vt 2.000000 1.000000
vt 0.000000 1.000000
vt 0.000000 1.000000
vt 3.000000 1.000000
vt 2.000000 1.000000
vt 3.000000 1.000000
vt 0.000000 1.000000
vt 0.662800 0.237200
vt 0.662800 0.312200
vt 0.737800 0.237200
vt 0.737800 0.312200
vt 0.662800 0.387200
vt 0.812800 0.237200
vt 0.737800 0.387200
vt 0.812800 0.312200
vt 0.812800 0.387200
vt 0.662800 0.462200
vt 0.887800 0.237200
vt 0.737800 0.462200
vt 0.662800 0.237200
vt 0.662800 0.312200
vt 0.737800 0.237200
vt 0.737800 0.312200
vt 0.662800 0.387200
vt 0.812800 0.237200
vt 0.737800 0.387200
vt 0.812800 0.312200
vt 0.812800 0.387200
vt 0.662800 0.462200
vt 0.887800 0.237200
vt 0.737800 0.462200
vt 0.250000 0.012500
vt 0.000000 0.037500
vt 0.250000 0.112500
vt 0.750000 0.112500
vt 0.250000 0.987500
vt 0.750000 0.987500
vt 0.250000 0.887500
vt -0.000000 1.000000
vt -0.000000 1.000000
vt 0.000000 1.000000
vt 0.000000 1.000000
vt -0.000000 1.000000
vt -0.000000 1.000000
vt 3.000000 0.000000
vt 0.000000 1.000000
vn 0.0000 1.0000 0.0000
vn 0.0000 -1.0000 -0.0000
vn 0.7071 0.0000 -0.7071
vn 1.0000 0.0000 0.0000
vn 0.7071 -0.0000 0.7071
vn 0.0000 -0.0000 1.0000
vn -0.7071 -0.0000 0.7071
vn -1.0000 0.0000 0.0000
vn -0.7071 0.0000 -0.7071
vn 0.0000 0.0000 -1.0000
vn 0.2588 0.0000 -0.9659
vn 0.9659 0.0000 -0.2588
vn 0.9659 0.0000 0.2588
vn 0.2588 -0.0000 0.9659
vn -0.2588 -0.0000 0.9659
vn -0.9659 0.0000 0.2588
vn -0.9659 0.0000 -0.2588
vn -0.2588 0.0000 -0.9659
g Plane_Plane_Press
usemtl Press
s off
f 3/1/1 8/2/1 18/3/1
f 21/4/1 4/5/1 2/6/1
f 23/7/1 4/5/1 20/8/1
f 17/9/2 11/10/2 9/11/2
f 12/12/2 14/13/2 22/14/2
f 19/15/2 10/16/2 24/17/2
f 3/18/3 16/19/3 8/20/3
f 19/21/4 3/22/4 20/23/4
f 14/24/5 4/25/5 6/26/5
f 22/27/6 6/28/6 21/29/6
f 10/30/7 5/31/7 2/32/7
f 24/33/8 2/34/8 23/35/8
f 7/36/9 9/37/9 1/38/9
f 17/39/10 7/40/10 18/41/10
f 9/42/8 23/35/8 1/43/8
f 16/44/10 18/41/10 8/45/10
f 12/46/4 20/23/4 4/47/4
f 13/48/6 21/29/6 5/49/6
f 26/50/11 27/51/11 25/52/11
f 28/53/3 29/54/3 27/55/3
f 30/56/12 31/57/12 29/58/12
f 32/59/13 33/60/13 31/61/13
f 34/62/5 35/63/5 33/64/5
f 36/65/14 37/66/14 35/67/14
f 38/68/15 39/69/15 37/70/15
f 40/71/7 41/72/7 39/73/7
f 42/74/16 43/75/16 41/76/16
f 44/77/17 45/78/17 43/79/17
f 46/80/9 47/81/9 45/82/9
f 48/83/18 25/84/18 47/85/18
f 50/86/11 51/87/11 49/88/11
f 52/89/3 53/90/3 51/91/3
f 54/92/12 55/93/12 53/94/12
f 56/95/13 57/96/13 55/97/13
f 58/98/5 59/99/5 57/100/5
f 60/101/14 61/102/14 59/103/14
f 62/104/15 63/105/15 61/106/15
f 64/107/7 65/108/7 63/109/7
f 66/110/16 67/111/16 65/112/16
f 68/113/17 69/114/17 67/115/17
f 70/116/9 71/117/9 69/118/9
f 72/119/18 49/120/18 71/121/18
f 75/122/2 80/123/2 90/124/2
f 93/125/2 76/126/2 74/127/2
f 95/128/2 76/126/2 92/129/2
f 89/130/1 83/131/1 81/132/1
f 84/133/1 86/134/1 94/135/1
f 91/136/1 82/137/1 96/138/1
f 75/139/5 88/140/5 80/141/5
f 92/142/4 83/143/4 75/144/4
f 86/145/3 76/146/3 78/147/3
f 94/148/10 78/149/10 93/150/10
f 74/151/9 85/152/9 77/153/9
f 95/154/8 82/155/8 74/156/8
f 73/157/7 87/158/7 81/159/7
f 89/160/6 79/161/6 90/162/6
f 81/163/8 95/154/8 73/164/8
f 88/165/6 90/162/6 80/166/6
f 84/167/4 92/142/4 76/168/4
f 85/169/10 93/150/10 77/170/10
f 18/3/1 7/171/1 1/172/1
f 1/172/1 3/1/1 18/3/1
f 2/6/1 5/173/1 21/4/1
f 21/4/1 6/174/1 4/5/1
f 20/8/1 3/1/1 1/172/1
f 23/7/1 2/6/1 4/5/1
f 20/8/1 1/172/1 23/7/1
f 9/11/2 15/175/2 17/9/2
f 17/9/2 16/176/2 11/10/2
f 22/14/2 13/177/2 10/16/2
f 10/16/2 12/12/2 22/14/2
f 9/11/2 11/10/2 19/15/2
f 19/15/2 12/12/2 10/16/2
f 24/17/2 9/11/2 19/15/2
f 3/18/3 11/178/3 16/19/3
f 19/21/4 11/179/4 3/22/4
f 14/24/5 12/180/5 4/25/5
f 22/27/6 14/181/6 6/28/6
f 10/30/7 13/182/7 5/31/7
f 24/33/8 10/183/8 2/34/8
f 7/36/9 15/184/9 9/37/9
f 17/39/10 15/185/10 7/40/10
f 9/42/8 24/33/8 23/35/8
f 16/44/10 17/39/10 18/41/10
f 12/46/4 19/21/4 20/23/4
f 13/48/6 22/27/6 21/29/6
f 26/50/11 28/186/11 27/51/11
f 28/53/3 30/187/3 29/54/3
f 30/56/12 32/188/12 31/57/12
f 32/59/13 34/189/13 33/60/13
f 34/62/5 36/190/5 35/63/5
f 36/65/14 38/191/14 37/66/14
f 38/68/15 40/192/15 39/69/15
f 40/71/7 42/193/7 41/72/7
f 42/74/16 44/194/16 43/75/16
f 44/77/17 46/195/17 45/78/17
f 46/80/9 48/196/9 47/81/9
f 48/83/18 26/197/18 25/84/18
f 50/86/11 52/198/11 51/87/11
f 52/89/3 54/199/3 53/90/3
f 54/92/12 56/200/12 55/93/12
f 56/95/13 58/201/13 57/96/13
f 58/98/5 60/202/5 59/99/5
f 60/101/14 62/203/14 61/102/14
f 62/104/15 64/204/15 63/105/15
f 64/107/7 66/205/7 65/108/7
f 66/110/16 68/206/16 67/111/16
f 68/113/17 70/207/17 69/114/17
f 70/116/9 72/208/9 71/117/9
f 72/119/18 50/209/18 49/120/18
f 90/124/2 79/210/2 73/211/2
f 73/211/2 75/122/2 90/124/2
f 74/127/2 77/212/2 93/125/2
f 93/125/2 78/213/2 76/126/2
f 92/129/2 75/122/2 73/211/2
f 95/128/2 74/127/2 76/126/2
f 92/129/2 73/211/2 95/128/2
f 81/132/1 87/214/1 89/130/1
f 89/130/1 88/215/1 83/131/1
f 94/135/1 85/216/1 82/137/1
f 82/137/1 84/133/1 94/135/1
f 81/132/1 83/131/1 91/136/1
f 91/136/1 84/133/1 82/137/1
f 96/138/1 81/132/1 91/136/1
f 75/139/5 83/217/5 88/140/5
f 92/142/4 91/218/4 83/143/4
f 86/145/3 84/219/3 76/146/3
f 94/148/10 86/220/10 78/149/10
f 74/151/9 82/221/9 85/152/9
f 95/154/8 96/222/8 82/155/8
f 73/157/7 79/223/7 87/158/7
f 89/160/6 87/224/6 79/161/6
f 81/163/8 96/222/8 95/154/8
f 88/165/6 89/160/6 90/162/6
f 84/167/4 91/218/4 92/142/4
f 85/169/10 94/148/10 93/150/10
