# Blender v2.79 (sub 0) OBJ File: 'claw.blend'
# www.blender.org
mtllib claw.mtl
o Cylinder
v -0.100000 -0.200000 -0.500000
v -0.100000 -0.200000 -0.750000
v 0.100000 -0.200000 -0.750000
v 0.100000 0.200000 -0.500000
v 0.100000 0.200000 -0.750000
v -0.100000 0.200000 -0.750000
v -0.160000 0.040000 -1.381439
v -0.080000 -0.120000 -1.381439
v 0.080000 -0.120000 -1.381439
v 0.160000 0.040000 -1.381439
v 0.080000 0.200000 -1.381439
v -0.080000 0.200000 -1.381439
v -0.040000 0.040000 -1.600000
v 0.040000 0.040000 -1.600000
v -0.600000 0.000000 -0.750000
v -0.500000 -0.200000 -0.500000
v -0.500000 -0.200000 -0.750000
v -0.300000 -0.200000 -0.500000
v -0.300000 -0.200000 -0.750000
v -0.300000 0.200000 -0.500000
v -0.300000 0.200000 -0.750000
v -0.500000 0.200000 -0.750000
v -0.560000 0.040000 -1.281439
v -0.480000 -0.120000 -1.281439
v -0.320000 -0.120000 -1.281439
v -0.240000 0.040000 -1.281439
v -0.320000 0.200000 -1.281439
v -0.480000 0.200000 -1.281439
v -0.440000 0.040000 -1.500000
v -0.360000 0.040000 -1.500000
v 0.200000 0.000000 -0.750000
v 0.300000 -0.200000 -0.500000
v 0.300000 -0.200000 -0.750000
v 0.500000 -0.200000 -0.500000
v 0.500000 -0.200000 -0.750000
v 0.600000 0.000000 -0.750000
v 0.500000 0.200000 -0.500000
v 0.500000 0.200000 -0.750000
v 0.300000 0.200000 -0.500000
v 0.300000 0.200000 -0.750000
v 0.240000 0.040000 -1.281439
v 0.320000 -0.120000 -1.281439
v 0.480000 -0.120000 -1.281439
v 0.560000 0.040000 -1.281439
v 0.480000 0.200000 -1.281439
v 0.320000 0.200000 -1.281439
v 0.360000 0.040000 -1.500000
v 0.440000 0.040000 -1.500000
v 0.600000 -0.000000 -0.500000
v -0.600000 -0.000000 -0.500000
v 0.600000 -0.000000 0.400000
v -0.200000 -0.000000 -0.750000
v 0.100000 -0.200000 -0.500000
v -0.500000 0.200000 -0.500000
v 0.500000 -0.200000 0.400000
v -0.100000 0.200000 -0.500000
v -0.600000 -0.000000 0.400000
v -0.500000 -0.200000 0.400000
v -0.300000 -0.200000 0.400000
v 0.300000 -0.200000 0.400000
v 0.100000 -0.200000 0.400000
v -0.100000 -0.200000 0.400000
v 0.500000 0.200000 0.400000
v -0.500000 0.200000 0.400000
v -0.300000 0.200000 0.400000
v 0.300000 0.200000 0.400000
v 0.100000 0.200000 0.400000
v -0.100000 0.200000 0.400000
v 0.360000 -0.000000 0.500000
v 0.300000 -0.120000 0.500000
v -0.360000 -0.000000 0.500000
v -0.300000 -0.120000 0.500000
v -0.180000 -0.120000 0.500000
v 0.180000 -0.120000 0.500000
v 0.060000 -0.120000 0.500000
v -0.060000 -0.120000 0.500000
v 0.300000 0.120000 0.500000
v -0.300000 0.120000 0.500000
v -0.180000 0.120000 0.500000
v 0.180000 0.120000 0.500000
v 0.060000 0.120000 0.500000
v -0.060000 0.120000 0.500000
vt 1.312519 -0.218505
vt 0.682962 -0.266803
vt 0.973592 -0.557433
vt -0.600229 1.356308
vt -0.369789 1.877377
vt -0.707755 1.539412
vt -0.126495 0.958152
vt 0.211471 1.296117
vt 0.028367 1.403644
vt 1.088687 0.138923
vt 0.459130 0.090626
vt 0.749760 -0.200004
vt -0.005563 -1.216894
vt 0.861676 -0.378718
vt 1.200603 -0.039791
vt -0.003582 1.662325
vt -0.186686 1.769851
vt -0.341548 1.324359
vt 0.675350 2.486572
vt -0.262263 1.694274
vt -0.470572 -0.751886
vt -0.327600 -0.841419
vt 0.907854 2.254068
vt -0.095096 -1.073923
vt 0.589329 2.633055
vt 1.054337 2.168047
vt 1.138802 2.659394
vt -0.556755 -1.244952
vt 1.095792 2.732635
vt -0.511989 -1.316438
vt -0.094546 0.699470
vt -0.047210 1.328066
vt -0.385176 0.990101
vt -0.154737 1.511170
vt -0.492702 1.173204
vt 0.504247 -0.154887
vt 0.843174 0.184040
vt 0.353839 -1.438753
vt 1.085507 -0.736147
vt 1.424434 -0.397220
vt 0.088558 0.591944
vt 0.243420 1.037436
vt 0.755216 1.985178
vt -0.111169 -0.973744
vt 0.031802 -1.063277
vt 0.426523 0.929910
vt 0.987720 1.752674
vt 0.264306 -1.295781
vt 0.669195 2.131661
vt 1.134203 1.666653
vt 1.218669 2.158000
vt -0.197353 -1.466810
vt 1.175658 2.231242
vt -0.152587 -1.538296
vt 0.280416 0.202542
vt 0.619343 0.541469
vt -0.815282 1.722516
vt -0.584842 2.243585
vt -0.922808 1.905619
vt 0.056585 0.559971
vt 0.574226 0.786982
vt 0.395512 0.898898
vt 0.235299 0.448055
vt 0.864856 0.496352
vt 0.525929 0.157425
vt -0.093824 -0.723895
vt 0.637845 -0.021289
vt 0.976772 0.317638
vt -0.477316 2.060481
vt 0.325111 2.717593
vt -0.558832 -0.258887
vt -0.415860 -0.348419
vt 0.557615 2.485089
vt -0.183356 -0.580923
vt 0.239090 2.864076
vt 0.704098 2.399068
vt 0.788563 2.890415
vt -0.645016 -0.751952
vt 0.745553 2.963657
vt -0.600249 -0.823438
vt -1.924431 0.322736
vt -1.709378 -0.043472
vt -1.311222 -0.517205
vt 1.794364 2.007120
vt 2.532656 1.001632
vt 2.196910 1.537776
vt -1.128118 -0.624732
vt 2.420741 1.180347
vt 2.084994 1.716490
vt -2.139483 0.688943
vt 1.615650 2.119036
vt 2.308825 1.359061
vt 1.502904 -0.318751
vt 1.562887 -0.762154
vt 1.891532 -0.433509
vt 0.133549 -1.688106
vt 0.576952 -1.748089
vt 0.508097 -1.514912
vt 1.458548 -1.369879
vt 1.467419 -1.159654
vt 1.303097 -1.323976
vt 1.732419 -1.096008
vt 1.631742 -0.995331
vt 1.184677 -1.643750
vt 0.974452 -1.652621
vt 0.910806 -1.917621
vt 0.955162 -0.866493
vt 1.165388 -0.857622
vt 1.229033 -0.592622
vt 0.407420 -1.414235
vt 0.672420 -1.350590
vt 0.681291 -1.140364
vt 0.836742 -1.186267
vt 0.810129 -1.816943
vt 0.636935 -2.191492
vt 1.329710 -0.693299
vt 0.248307 -2.076734
vt 1.001065 -1.021944
vt 1.138774 -1.488299
vt 2.006290 -0.822137
vt -1.816905 0.139632
vt -1.601852 -0.226575
vt 2.644572 0.822918
vt -2.031957 0.505839
vn 0.8944 0.4472 0.0000
vn 0.0000 -1.0000 -0.0000
vn -0.8944 0.4472 0.0000
vn 0.0000 1.0000 0.0000
vn -0.8912 -0.4456 -0.0847
vn 0.8912 -0.4456 -0.0847
vn -0.8941 0.4470 -0.0283
vn 0.8941 0.4470 -0.0283
vn 0.0000 -0.9921 -0.1257
vn -0.8028 0.4014 -0.4408
vn 0.8028 0.4014 -0.4408
vn 0.0000 -0.8069 -0.5907
vn 0.0000 0.8069 -0.5907
vn 0.8028 -0.4014 -0.4408
vn -0.8028 -0.4014 -0.4408
vn -0.8944 -0.4472 -0.0000
vn 0.8944 -0.4472 -0.0000
vn -0.8899 -0.4450 -0.1005
vn 0.8899 -0.4450 -0.1005
vn -0.8939 0.4470 -0.0336
vn 0.8939 0.4470 -0.0336
vn 0.0000 -0.9889 -0.1489
vn -0.0000 -0.7809 -0.6247
vn 0.0000 0.7809 -0.6247
vn 0.3777 0.1888 0.9065
vn -0.3777 0.1888 0.9065
vn 0.0000 -0.7809 0.6247
vn 0.0000 0.7809 0.6247
vn -0.3777 -0.1888 0.9065
vn 0.3777 -0.1888 0.9065
vn 0.0000 0.0000 1.0000
g Cylinder_Cylinder_Ice
usemtl Ice
s off
f 20/1/1 52/2/1 21/3/1
f 1/4/2 3/5/2 53/6/2
f 56/7/3 6/8/3 52/9/3
f 4/10/1 31/11/1 5/12/1
f 5/12/4 12/13/4 6/14/4
f 5/12/4 56/15/4 4/10/4
f 40/16/3 31/17/3 39/18/3
f 52/9/5 8/19/5 2/20/5
f 31/11/6 9/21/6 10/22/6
f 6/8/7 7/23/7 52/9/7
f 5/12/8 10/22/8 11/24/8
f 2/20/9 9/25/9 3/5/9
f 7/23/10 12/26/10 13/27/10
f 11/24/11 10/22/11 14/28/11
f 8/19/12 14/29/12 9/25/12
f 11/24/13 13/30/13 12/13/13
f 10/22/14 9/21/14 14/28/14
f 8/19/15 7/23/15 13/27/15
f 50/31/16 17/32/16 16/33/16
f 16/33/2 19/34/2 18/35/2
f 19/36/17 52/2/17 18/37/17
f 1/4/16 52/9/16 2/20/16
f 21/3/4 28/38/4 22/39/4
f 21/3/4 54/40/4 20/1/4
f 54/41/3 15/42/3 50/31/3
f 15/42/18 24/43/18 17/32/18
f 52/2/19 25/44/19 26/45/19
f 22/46/20 23/47/20 15/42/20
f 21/3/21 26/45/21 27/48/21
f 17/32/22 25/49/22 19/34/22
f 23/47/10 28/50/10 29/51/10
f 27/48/11 26/45/11 30/52/11
f 24/43/12 30/53/12 25/49/12
f 27/48/13 29/54/13 28/38/13
f 26/45/14 25/44/14 30/52/14
f 24/43/15 23/47/15 29/51/15
f 3/55/17 31/11/17 53/56/17
f 32/57/2 35/58/2 34/59/2
f 35/60/17 49/61/17 34/62/17
f 36/63/1 37/64/1 49/61/1
f 38/65/4 46/66/4 40/67/4
f 38/65/4 39/68/4 37/64/4
f 31/17/16 33/69/16 32/57/16
f 31/17/18 42/70/18 33/69/18
f 36/63/19 43/71/19 44/72/19
f 40/16/20 41/73/20 31/17/20
f 38/65/21 44/72/21 45/74/21
f 33/69/22 43/75/22 35/58/22
f 41/73/10 46/76/10 47/77/10
f 45/74/11 44/72/11 48/78/11
f 42/70/12 48/79/12 43/75/12
f 45/74/13 47/80/13 46/66/13
f 44/72/14 43/71/14 48/78/14
f 42/70/15 41/73/15 47/77/15
f 32/57/23 53/6/23 31/17/23
f 18/35/23 52/9/23 1/4/23
f 31/11/24 4/10/24 39/68/24
f 52/2/24 20/1/24 56/15/24
f 61/81/2 1/4/2 53/6/2
f 1/4/2 59/82/2 18/35/2
f 16/33/16 57/83/16 50/31/16
f 37/64/1 51/84/1 49/61/1
f 54/40/4 65/85/4 20/1/4
f 4/10/4 66/86/4 39/68/4
f 59/82/2 16/33/2 18/35/2
f 50/31/3 64/87/3 54/41/3
f 20/1/4 68/88/4 56/15/4
f 39/68/4 63/89/4 37/64/4
f 55/90/2 32/57/2 34/59/2
f 32/57/2 61/81/2 53/6/2
f 49/61/17 55/91/17 34/62/17
f 56/15/4 67/92/4 4/10/4
f 63/93/25 69/94/25 51/95/25
f 64/96/26 71/97/26 78/98/26
f 61/99/27 74/100/27 75/101/27
f 60/102/27 70/103/27 74/100/27
f 62/104/27 73/105/27 59/106/27
f 67/107/28 80/108/28 66/109/28
f 65/110/28 78/98/28 79/111/28
f 68/112/28 79/111/28 82/113/28
f 59/106/27 72/114/27 58/115/27
f 66/109/28 77/116/28 63/93/28
f 58/115/29 71/97/29 57/117/29
f 68/112/28 81/118/28 67/107/28
f 61/99/27 76/119/27 62/104/27
f 55/120/30 69/94/30 70/103/30
f 69/94/31 77/116/31 70/103/31
f 71/97/31 72/114/31 78/98/31
f 70/103/31 80/108/31 74/100/31
f 74/100/31 81/118/31 75/101/31
f 76/119/31 81/118/31 82/113/31
f 82/113/31 73/105/31 76/119/31
f 72/114/31 79/111/31 78/98/31
f 1/4/2 2/20/2 3/5/2
f 5/12/4 11/24/4 12/13/4
f 5/12/4 6/14/4 56/15/4
f 52/9/5 7/23/5 8/19/5
f 31/11/6 3/55/6 9/21/6
f 6/8/7 12/26/7 7/23/7
f 5/12/8 31/11/8 10/22/8
f 2/20/9 8/19/9 9/25/9
f 8/19/12 13/27/12 14/29/12
f 11/24/13 14/28/13 13/30/13
f 50/31/16 15/42/16 17/32/16
f 16/33/2 17/32/2 19/34/2
f 21/3/4 27/48/4 28/38/4
f 21/3/4 22/39/4 54/40/4
f 54/41/3 22/46/3 15/42/3
f 15/42/18 23/47/18 24/43/18
f 52/2/19 19/36/19 25/44/19
f 22/46/20 28/50/20 23/47/20
f 21/3/21 52/2/21 26/45/21
f 17/32/22 24/43/22 25/49/22
f 24/43/12 29/51/12 30/53/12
f 27/48/13 30/52/13 29/54/13
f 32/57/2 33/69/2 35/58/2
f 35/60/17 36/63/17 49/61/17
f 36/63/1 38/65/1 37/64/1
f 38/65/4 45/74/4 46/66/4
f 38/65/4 40/67/4 39/68/4
f 31/17/18 41/73/18 42/70/18
f 36/63/19 35/60/19 43/71/19
f 40/16/20 46/76/20 41/73/20
f 38/65/21 36/63/21 44/72/21
f 33/69/22 42/70/22 43/75/22
f 42/70/12 47/77/12 48/79/12
f 45/74/13 48/78/13 47/80/13
f 61/81/2 62/121/2 1/4/2
f 1/4/2 62/121/2 59/82/2
f 16/33/16 58/122/16 57/83/16
f 37/64/1 63/89/1 51/84/1
f 54/40/4 64/123/4 65/85/4
f 4/10/4 67/92/4 66/86/4
f 59/82/2 58/122/2 16/33/2
f 50/31/3 57/83/3 64/87/3
f 20/1/4 65/85/4 68/88/4
f 39/68/4 66/86/4 63/89/4
f 55/90/2 60/124/2 32/57/2
f 32/57/2 60/124/2 61/81/2
f 49/61/17 51/84/17 55/91/17
f 56/15/4 68/88/4 67/92/4
f 63/93/25 77/116/25 69/94/25
f 64/96/26 57/117/26 71/97/26
f 61/99/27 60/102/27 74/100/27
f 60/102/27 55/120/27 70/103/27
f 62/104/27 76/119/27 73/105/27
f 67/107/28 81/118/28 80/108/28
f 65/110/28 64/96/28 78/98/28
f 68/112/28 65/110/28 79/111/28
f 59/106/27 73/105/27 72/114/27
f 66/109/28 80/108/28 77/116/28
f 58/115/29 72/114/29 71/97/29
f 68/112/28 82/113/28 81/118/28
f 61/99/27 75/101/27 76/119/27
f 55/120/30 51/95/30 69/94/30
f 70/103/31 77/116/31 80/108/31
f 74/100/31 80/108/31 81/118/31
f 76/119/31 75/101/31 81/118/31
f 82/113/31 79/111/31 73/105/31
f 72/114/31 73/105/31 79/111/31
