# Blender v2.79 (sub 0) OBJ File: 'bonus-level.blend'
# www.blender.org
mtllib bonus-level.mtl
o Cone
v 0.000000 -2.000002 14.000000
v 2.731265 -2.000002 13.730993
v 5.357568 -2.000002 12.934313
v 7.777984 -2.000002 11.640574
v 9.899495 -2.000001 9.899495
v 11.640575 -2.000001 7.777983
v 12.934313 -2.000001 5.357568
v 13.730993 -2.000000 2.731265
v 15.000000 0.000003 0.000001
v 14.000000 -2.000000 0.000001
v 13.730994 -2.000000 -2.731263
v 12.934314 -1.999999 -5.357566
v 11.640575 -1.999999 -7.777983
v 9.899495 -1.999999 -9.899495
v 7.777983 -1.999998 -11.640575
v 5.357566 -1.999998 -12.934315
v 2.731261 -1.999998 -13.730994
v -0.000005 -1.999998 -14.000000
v -2.731270 -1.999998 -13.730992
v -5.357574 -1.999998 -12.934311
v -7.777990 -1.999998 -11.640570
v -9.899502 -1.999999 -9.899488
v -11.640580 -1.999999 -7.777975
v -12.934319 -1.999999 -5.357557
v -13.730996 -2.000000 -2.731253
v -14.000000 -2.000000 0.000013
v -13.730991 -2.000000 2.731279
v -12.934307 -2.000001 5.357583
v -11.640565 -2.000001 7.777997
v -10.606588 0.000001 10.606615
v -9.899483 -2.000001 9.899508
v -7.777967 -2.000002 11.640585
v -5.357549 -2.000002 12.934321
v -2.731243 -2.000002 13.730998
v -6.000000 0.000000 6.000000
v 6.000000 0.000000 -6.000000
v 6.000000 0.000000 6.000000
v -6.000000 0.000000 -6.000000
v 13.858192 -0.000000 5.740252
v 13.719355 0.000000 6.000000
v 12.472046 -0.000000 8.333552
v 10.606602 0.000001 10.606602
v 8.333553 0.000000 12.472044
v 5.740252 0.000000 13.858192
v 6.000000 0.000000 13.719354
v 2.926355 -0.000000 14.711779
v 0.000000 0.000000 15.000000
v -2.926332 -0.000000 14.711783
v -5.740232 0.000000 13.858202
v -8.333537 0.000000 12.472055
v -6.000000 0.000000 13.719353
v -12.472034 -0.000000 8.333569
v -13.858187 -0.000000 5.740267
v -13.719357 0.000000 6.000000
v 14.711781 0.000000 -2.926352
v 14.711779 0.000001 2.926355
v 13.858192 -0.000000 -5.740250
v 13.719353 0.000000 -6.000000
v 12.472046 0.000000 -8.333553
v -12.472050 0.000000 -8.333546
v -13.858198 -0.000000 -5.740240
v -13.719354 0.000000 -6.000000
v -14.711776 0.000001 2.926371
v -14.711782 0.000000 -2.926342
v -15.000000 0.000000 0.000014
v 10.606602 0.000000 -10.606602
v 8.333553 0.000000 -12.472046
v -10.606608 0.000000 -10.606594
v -8.333561 0.000000 -12.472038
v 5.740250 0.000000 -13.858194
v 6.000000 0.000000 -13.719353
v -5.999999 0.000000 -13.719355
v -5.740258 0.000000 -13.858189
v -2.926361 0.000000 -14.711777
v 2.926352 0.000000 -14.711781
v -0.000005 0.000000 -15.000000
vt -2.322331 -2.322331
vt -6.110744 0.786743
vt -10.000000 -10.000000
vt -0.000009 5.000000
vt -4.877268 4.519628
vt -10.000000 -10.000000
vt 3.096988 9.567083
vt 2.865588 10.000000
vt -10.000000 10.000000
vt 10.000000 -10.000000
vt -10.000000 10.000000
vt -10.000000 -10.000000
vt 10.000000 -10.000000
vt 10.000000 10.000000
vt -5.000000 -0.000024
vt 10.000000 10.000000
vt -10.000000 10.000000
vt 0.000000 -4.999999
vt 6.110772 -0.786759
vt 10.000000 -2.865589
vt 10.000000 10.000000
vt 0.786743 6.110745
vt 2.865591 10.000000
vt -10.000000 10.000000
vt -0.786751 -6.110756
vt -2.865591 -10.000000
vt 10.000000 -10.000000
vt -10.000000 2.865588
vt 2.865588 -10.000000
vt 0.786743 -6.110744
vt -10.000000 2.865591
vt -9.567096 3.096981
vt 10.000000 -10.000000
vt 10.000000 2.865588
vt 9.567082 3.096991
vt 4.877253 4.519635
vt -10.000000 -10.000000
vt 5.000000 -0.000002
vt 2.865591 -10.000000
vt 3.096987 -9.567085
vt 4.519635 4.877253
vt 4.519632 -4.877258
vt 10.000000 10.000000
vt -2.865589 10.000000
vt -3.096997 9.567066
vt -4.519636 4.877237
vt -4.519626 -4.877284
vt -3.096978 -9.567111
vt -2.865593 -10.000000
vt -10.000000 -2.865589
vt -9.567052 -3.097003
vt -4.877222 -4.519639
vt 4.877258 -4.519632
vt 9.567085 -3.096987
vt 10.000000 -2.865589
vt -2.865593 10.000000
vt -0.786724 6.110719
vt 2.322352 2.322309
vt -10.000000 -2.865589
vt -6.110744 -0.786739
vt -2.322330 2.322330
vt 10.000000 2.865591
vt 6.110731 0.786731
vt 2.322318 -2.322343
vt 0.099998 -0.000000
vt 1.277498 1.000000
vt 0.099998 1.000001
vt 2.454998 -0.000001
vt 2.454998 1.000000
vt 3.632498 1.000000
vt 3.632498 -0.000001
vt 4.809998 1.000000
vt 5.987499 -0.000001
vt 5.987499 1.000000
vt 7.164998 1.000000
vt 8.342498 -0.000001
vt 8.342498 1.000000
vt 9.519998 -0.000001
vt 9.519998 1.000001
vt -4.880002 0.999999
vt -3.702504 1.999999
vt -4.880002 2.000001
vt -3.702502 0.999999
vt -2.525001 1.999999
vt -1.347501 1.000000
vt -1.347501 1.999999
vt -0.170002 1.999999
vt -0.170002 1.000000
vt 1.007499 1.999999
vt 1.007499 1.000000
vt 2.184999 1.999999
vt 2.184999 1.000000
vt 3.362499 1.999999
vt 3.362499 1.000000
vt 4.540003 1.999999
vt -2.739999 -1.000000
vt -1.562499 -0.000000
vt -2.739999 -0.000001
vt -1.562499 -0.999999
vt -0.385000 -0.000000
vt 0.792501 -0.999999
vt 0.792501 -0.000000
vt 1.970002 0.000000
vt 1.970002 -0.999999
vt 3.147500 0.000000
vt 3.147500 -0.999999
vt 4.325002 0.000000
vt 4.325003 -0.999999
vt 5.502503 0.000001
vt -10.497499 1.000001
vt -9.319999 0.000001
vt -9.319999 1.000001
vt -8.142496 1.000001
vt -8.142496 0.000000
vt -6.964996 1.000001
vt -6.964996 0.000000
vt -5.787496 1.000001
vt -5.787495 0.000000
vt -4.609994 1.000001
vt -4.609994 0.000000
vt -3.432493 1.000001
vt -3.432493 -0.000000
vt -2.254993 1.000001
vt -2.254993 -0.000000
vt -1.077493 1.000001
vt 1.277498 -0.000001
vt 4.809998 -0.000001
vt 7.164998 -0.000001
vt -2.525001 1.000000
vt 4.540003 1.000000
vt -0.385001 -0.999999
vt 5.502503 -0.999999
vt -10.497499 0.000001
vt -1.077493 -0.000000
vt 3.178785 6.967157
vt -5.967154 3.178792
vt -2.178787 -5.967155
vt 1.865634 7.365498
vt -2.178774 6.967162
vt 0.500001 7.500000
vt -0.865621 7.365500
vt -3.388983 6.320294
vt -4.449741 5.449755
vt -5.320282 4.388999
vt -6.365496 1.865640
vt -6.500000 0.500008
vt -6.365498 -0.865626
vt -5.967159 -2.178778
vt -5.320291 -3.388987
vt -4.449751 -4.449744
vt -3.388995 -5.320284
vt -0.865636 -6.365496
vt 3.178783 -5.967157
vt 0.499997 -6.500000
vt 1.865630 -6.365497
vt 4.388991 -5.320288
vt 5.449748 -4.449748
vt 6.320289 -3.388992
vt 6.967158 -2.178783
vt 7.365499 -0.865632
vt 7.500000 0.500000
vt 7.365498 1.865632
vt 6.967157 3.178784
vt 6.320289 4.388991
vt 5.449749 5.449748
vt 4.388992 6.320288
vn 0.0000 1.0000 -0.0000
vn 0.0878 -0.4455 0.8910
vn 0.2599 -0.4455 0.8567
vn 0.4220 -0.4455 0.7896
vn 0.5680 -0.4455 0.6921
vn 0.6921 -0.4455 0.5680
vn 0.7896 -0.4455 0.4220
vn 0.8567 -0.4455 0.2599
vn 0.8910 -0.4455 0.0878
vn 0.8910 -0.4455 -0.0878
vn 0.8567 -0.4455 -0.2599
vn 0.7896 -0.4455 -0.4220
vn 0.6921 -0.4455 -0.5680
vn 0.5680 -0.4455 -0.6921
vn 0.4220 -0.4455 -0.7896
vn 0.2599 -0.4455 -0.8567
vn 0.0878 -0.4455 -0.8910
vn -0.0878 -0.4455 -0.8910
vn -0.2599 -0.4455 -0.8567
vn -0.4220 -0.4455 -0.7896
vn -0.5680 -0.4455 -0.6921
vn -0.6921 -0.4455 -0.5680
vn -0.7896 -0.4455 -0.4220
vn -0.8567 -0.4455 -0.2599
vn -0.8910 -0.4455 -0.0878
vn -0.8910 -0.4455 0.0878
vn -0.8567 -0.4455 0.2599
vn -0.7896 -0.4455 0.4220
vn -0.6921 -0.4455 0.5680
vn -0.5680 -0.4455 0.6921
vn -0.4220 -0.4455 0.7896
vn -0.2599 -0.4455 0.8567
vn -0.0878 -0.4455 0.8910
vn 0.0000 -1.0000 -0.0000
g Cone_Cone_Grass
usemtl Grass
s off
f 66/1/1 67/2/1 36/3/1
f 76/4/1 74/5/1 38/6/1
f 57/7/1 58/8/1 36/9/1
f 37/10/1 38/11/1 35/12/1
f 35/13/1 38/14/1 65/15/1
f 37/16/1 35/17/1 47/18/1
f 50/19/1 51/20/1 35/21/1
f 41/22/1 40/23/1 37/24/1
f 60/25/1 62/26/1 38/27/1
f 71/28/1 36/3/1 67/2/1
f 36/3/1 58/29/1 59/30/1
f 66/1/1 36/3/1 59/30/1
f 72/31/1 38/6/1 73/32/1
f 38/6/1 36/33/1 76/4/1
f 73/32/1 38/6/1 74/5/1
f 36/33/1 71/34/1 70/35/1
f 70/35/1 75/36/1 36/33/1
f 75/36/1 76/4/1 36/33/1
f 36/9/1 37/37/1 9/38/1
f 37/37/1 40/39/1 39/40/1
f 36/9/1 9/38/1 55/41/1
f 39/40/1 56/42/1 37/37/1
f 56/42/1 9/38/1 37/37/1
f 55/41/1 57/7/1 36/9/1
f 37/10/1 36/43/1 38/11/1
f 38/14/1 62/44/1 61/45/1
f 61/45/1 64/46/1 38/14/1
f 64/46/1 65/15/1 38/14/1
f 65/15/1 63/47/1 35/13/1
f 63/47/1 53/48/1 35/13/1
f 53/48/1 54/49/1 35/13/1
f 35/17/1 51/50/1 49/51/1
f 49/51/1 48/52/1 35/17/1
f 48/52/1 47/18/1 35/17/1
f 47/18/1 46/53/1 37/16/1
f 46/53/1 44/54/1 37/16/1
f 44/54/1 45/55/1 37/16/1
f 35/21/1 54/56/1 52/57/1
f 52/57/1 30/58/1 35/21/1
f 30/58/1 50/19/1 35/21/1
f 37/24/1 45/59/1 43/60/1
f 43/60/1 42/61/1 37/24/1
f 42/61/1 41/22/1 37/24/1
f 38/27/1 72/62/1 69/63/1
f 69/63/1 68/64/1 38/27/1
f 68/64/1 60/25/1 38/27/1
g Cone_Cone_Edge
usemtl Edge
f 1/65/2 46/66/2 47/67/2
f 46/66/3 3/68/3 44/69/3
f 3/68/4 43/70/4 44/69/4
f 4/71/5 42/72/5 43/70/5
f 42/72/6 6/73/6 41/74/6
f 6/73/7 39/75/7 41/74/7
f 39/75/8 8/76/8 56/77/8
f 56/77/9 10/78/9 9/79/9
f 10/80/10 55/81/10 9/82/10
f 11/83/11 57/84/11 55/81/11
f 57/84/12 13/85/12 59/86/12
f 13/85/13 66/87/13 59/86/13
f 14/88/14 67/89/14 66/87/14
f 15/90/15 70/91/15 67/89/15
f 16/92/16 75/93/16 70/91/16
f 17/94/17 76/95/17 75/93/17
f 18/96/18 74/97/18 76/98/18
f 19/99/19 73/100/19 74/97/19
f 73/100/20 21/101/20 69/102/20
f 21/101/21 68/103/21 69/102/21
f 22/104/22 60/105/22 68/103/22
f 23/106/23 61/107/23 60/105/23
f 24/108/24 64/109/24 61/107/24
f 64/110/25 26/111/25 65/112/25
f 26/111/26 63/113/26 65/112/26
f 27/114/27 53/115/27 63/113/27
f 28/116/28 52/117/28 53/115/28
f 29/118/29 30/119/29 52/117/29
f 31/120/30 50/121/30 30/119/30
f 32/122/31 49/123/31 50/121/31
f 33/124/32 48/125/32 49/123/32
f 48/125/33 1/65/33 47/67/33
f 1/65/2 2/126/2 46/66/2
f 46/66/3 2/126/3 3/68/3
f 3/68/4 4/71/4 43/70/4
f 4/71/5 5/127/5 42/72/5
f 42/72/6 5/127/6 6/73/6
f 6/73/7 7/128/7 39/75/7
f 39/75/8 7/128/8 8/76/8
f 56/77/9 8/76/9 10/78/9
f 10/80/10 11/83/10 55/81/10
f 11/83/11 12/129/11 57/84/11
f 57/84/12 12/129/12 13/85/12
f 13/85/13 14/88/13 66/87/13
f 14/88/14 15/90/14 67/89/14
f 15/90/15 16/92/15 70/91/15
f 16/92/16 17/94/16 75/93/16
f 17/94/17 18/130/17 76/95/17
f 18/96/18 19/99/18 74/97/18
f 19/99/19 20/131/19 73/100/19
f 73/100/20 20/131/20 21/101/20
f 21/101/21 22/104/21 68/103/21
f 22/104/22 23/106/22 60/105/22
f 23/106/23 24/108/23 61/107/23
f 24/108/24 25/132/24 64/109/24
f 64/110/25 25/133/25 26/111/25
f 26/111/26 27/114/26 63/113/26
f 27/114/27 28/116/27 53/115/27
f 28/116/28 29/118/28 52/117/28
f 29/118/29 31/120/29 30/119/29
f 31/120/30 32/122/30 50/121/30
f 32/122/31 33/124/31 49/123/31
f 33/124/32 34/134/32 48/125/32
f 48/125/33 34/134/33 1/65/33
g Cone_Cone_Bottom
usemtl Bottom
f 3/135/34 28/136/34 20/137/34
f 3/135/34 2/138/34 33/139/34
f 2/138/34 1/140/34 33/139/34
f 1/140/34 34/141/34 33/139/34
f 33/139/34 32/142/34 28/136/34
f 32/142/34 31/143/34 28/136/34
f 31/143/34 29/144/34 28/136/34
f 28/136/34 27/145/34 26/146/34
f 26/146/34 25/147/34 28/136/34
f 25/147/34 24/148/34 28/136/34
f 24/148/34 23/149/34 22/150/34
f 22/150/34 21/151/34 20/137/34
f 20/137/34 19/152/34 16/153/34
f 19/152/34 18/154/34 16/153/34
f 18/154/34 17/155/34 16/153/34
f 16/153/34 15/156/34 14/157/34
f 14/157/34 13/158/34 12/159/34
f 12/159/34 11/160/34 10/161/34
f 10/161/34 8/162/34 12/159/34
f 8/162/34 7/163/34 12/159/34
f 7/163/34 6/164/34 5/165/34
f 5/165/34 4/166/34 3/135/34
f 24/148/34 22/150/34 28/136/34
f 22/150/34 20/137/34 28/136/34
f 16/153/34 14/157/34 12/159/34
f 7/163/34 5/165/34 12/159/34
f 5/165/34 3/135/34 12/159/34
f 3/135/34 33/139/34 28/136/34
f 20/137/34 16/153/34 3/135/34
f 16/153/34 12/159/34 3/135/34
