# Blender v2.79 (sub 0) OBJ File: 'weight.blend'
# www.blender.org
mtllib weight-collision.mtl
o Cylinder
v 0.000000 0.000000 -1.000000
v 0.000000 1.500000 -1.000000
v 0.707107 0.000000 -0.707107
v 0.707107 1.500000 -0.707107
v 1.000000 0.000000 0.000000
v 1.000000 1.500000 0.000000
v 0.707107 0.000000 0.707107
v 0.707107 1.500000 0.707107
v -0.000000 0.000000 1.000000
v -0.000000 1.500000 1.000000
v -0.707107 0.000000 0.707107
v -0.707107 1.500000 0.707107
v -1.000000 0.000000 -0.000000
v -1.000000 1.500000 -0.000000
v -0.707107 0.000000 -0.707107
v -0.707107 1.500000 -0.707107
vt 0.500000 1.500000
vt 1.000000 0.000000
vt 0.500000 0.000000
vt 1.000000 1.500000
vt 0.500000 0.000000
vt 0.500000 1.500000
vt 0.000000 0.000000
vt 1.000000 1.500000
vt 0.500000 0.000000
vt 1.000000 0.000000
vt 0.500000 1.500000
vt -0.000000 0.000000
vt 0.000000 1.500000
vt 0.500000 0.000000
vt 1.499999 0.500000
vt -0.499999 0.500000
vt 0.500000 1.500000
vt 1.000000 0.000000
vt 0.000000 1.500000
vt -0.000000 0.000000
vt 1.207106 -0.207106
vt -0.207106 -0.207105
vt -0.207106 1.207106
vt -0.000000 1.500000
vt 1.207106 1.207106
vt -0.207106 1.207106
vt -0.207106 -0.207106
vt 0.500000 -0.499999
vt 1.207106 -0.207106
vt 1.000000 1.500000
vt 0.500000 1.499999
vt 1.207106 1.207106
vt 1.499999 0.500000
vt 0.500000 -0.499998
vt -0.499999 0.500000
vn 0.3827 0.0000 -0.9239
vn 0.9239 0.0000 -0.3827
vn 0.9239 0.0000 0.3827
vn 0.3827 0.0000 0.9239
vn -0.3827 0.0000 0.9239
vn -0.9239 0.0000 0.3827
vn 0.0000 1.0000 0.0000
vn -0.9239 0.0000 -0.3827
vn -0.3827 0.0000 -0.9239
vn 0.0000 -1.0000 0.0000
g Cylinder_Cylinder_Metal
usemtl Metal
s off
f 2/1/1 3/2/1 1/3/1
f 4/4/2 5/5/2 3/2/2
f 6/6/3 7/7/3 5/5/3
f 8/8/4 9/9/4 7/10/4
f 10/11/5 11/12/5 9/9/5
f 12/13/6 13/14/6 11/12/6
f 6/15/7 2/1/7 14/16/7
f 14/17/8 15/18/8 13/14/8
f 16/19/9 1/3/9 15/20/9
f 7/21/10 11/22/10 15/23/10
f 2/1/1 4/4/1 3/2/1
f 4/4/2 6/6/2 5/5/2
f 6/6/3 8/24/3 7/7/3
f 8/8/4 10/11/4 9/9/4
f 10/11/5 12/13/5 11/12/5
f 12/13/6 14/17/6 13/14/6
f 6/15/7 4/25/7 2/1/7
f 2/1/7 16/26/7 14/16/7
f 14/16/7 12/27/7 10/28/7
f 10/28/7 8/29/7 14/16/7
f 8/29/7 6/15/7 14/16/7
f 14/17/8 16/30/8 15/18/8
f 16/19/9 2/1/9 1/3/9
f 15/23/10 1/31/10 3/32/10
f 3/32/10 5/33/10 7/21/10
f 7/21/10 9/34/10 11/22/10
f 11/22/10 13/35/10 15/23/10
f 15/23/10 3/32/10 7/21/10
