# Blender v2.79 (sub 0) OBJ File: 'fireball-shooter.blend'
# www.blender.org
mtllib fireball-shooter.mtl
o Cylinder
v 0.000000 0.812500 0.000000
v 0.000000 0.812500 0.250000
v 0.574524 0.574524 0.000000
v 0.574524 0.574524 0.250000
v 0.812500 -0.000000 0.000000
v 0.812500 -0.000000 0.250000
v 0.574524 -0.574524 0.000000
v 0.574524 -0.574524 0.250000
v -0.000000 -0.812500 0.000000
v -0.000000 -0.812500 0.250000
v -0.574524 -0.574524 0.000000
v -0.574524 -0.574524 0.250000
v -0.812500 0.000000 0.000000
v -0.812500 0.000000 0.250000
v -0.574524 0.574524 0.000000
v -0.574524 0.574524 0.250000
v 0.000000 -0.500000 0.500000
v 0.000000 -0.375000 0.250000
v 0.353553 -0.353553 0.500000
v 0.265165 -0.265165 0.250000
v 0.500000 0.000000 0.500000
v 0.375000 0.000000 0.250000
v 0.353553 0.353553 0.500000
v 0.265165 0.265165 0.250000
v -0.000000 0.500000 0.500000
v -0.000000 0.375000 0.250000
v -0.353553 0.353553 0.500000
v -0.265165 0.265165 0.250000
v -0.500000 -0.000000 0.500000
v -0.375000 -0.000000 0.250000
v -0.353553 -0.353553 0.500000
v -0.265165 -0.265165 0.250000
v 0.000000 -0.375000 0.500000
v 0.265165 -0.265165 0.500000
v 0.375000 0.000000 0.500000
v 0.265165 0.265165 0.500000
v -0.000000 0.375000 0.500000
v -0.265165 0.265165 0.500000
v -0.375000 -0.000000 0.500000
v -0.265165 -0.265165 0.500000
v 0.000000 -0.375000 0.437500
v 0.265165 -0.265165 0.437500
v 0.375000 0.000000 0.437500
v 0.265165 0.265165 0.437500
v -0.000000 0.375000 0.437500
v -0.265165 0.265165 0.437500
v -0.375000 -0.000000 0.437500
v -0.265165 -0.265165 0.437500
v 0.000000 0.000000 0.437500
vt 0.498999 0.210400
vt 0.401001 0.289600
vt 0.498999 0.289600
vt 0.198999 0.290400
vt 0.001001 0.329600
vt 0.198999 0.329600
vt 0.598999 0.210400
vt 0.501001 0.289600
vt 0.598999 0.289600
vt 0.398999 0.290400
vt 0.201001 0.329600
vt 0.398999 0.329600
vt 0.601001 0.050400
vt 0.698999 0.129600
vt 0.698999 0.050400
vt 0.598999 0.290400
vt 0.401001 0.329600
vt 0.598999 0.329600
vt 0.601001 0.130400
vt 0.698999 0.209600
vt 0.698999 0.130400
vt 0.198999 0.330400
vt 0.001001 0.369600
vt 0.198999 0.369600
vt 0.601001 0.210400
vt 0.698999 0.289600
vt 0.698999 0.210400
vt 0.398999 0.369600
vt 0.201001 0.330400
vt 0.201001 0.369600
vt 0.701001 0.050400
vt 0.798999 0.129600
vt 0.798999 0.050400
vt 0.598999 0.330400
vt 0.401001 0.369600
vt 0.598999 0.369600
vt 0.798999 0.130400
vt 0.701001 0.209600
vt 0.798999 0.209600
vt 0.798999 0.290400
vt 0.601001 0.329600
vt 0.798999 0.329600
vt 0.001001 0.050400
vt 0.198999 0.129600
vt 0.198999 0.050400
vt 0.701001 0.210400
vt 0.798999 0.289600
vt 0.798999 0.210400
vt 0.798999 0.369600
vt 0.601001 0.330400
vt 0.601001 0.369600
vt 0.198999 0.130400
vt 0.001001 0.209600
vt 0.198999 0.209600
vt 0.201001 0.050400
vt 0.398999 0.129600
vt 0.398999 0.050400
vt 0.201001 0.130400
vt 0.398999 0.209600
vt 0.398999 0.130400
vt 0.001001 0.210400
vt 0.198999 0.289600
vt 0.198999 0.210400
vt 0.401001 0.050400
vt 0.598999 0.129600
vt 0.598999 0.050400
vt 0.201001 0.210400
vt 0.398999 0.289600
vt 0.398999 0.210400
vt 0.598999 0.130400
vt 0.401001 0.209600
vt 0.598999 0.209600
vt 0.801001 0.370400
vt 0.898999 0.409600
vt 0.898999 0.370400
vt 0.001001 0.410400
vt 0.098999 0.449600
vt 0.098999 0.410400
vt 0.901001 0.050400
vt 0.998999 0.089600
vt 0.998999 0.050400
vt 0.101001 0.410400
vt 0.198999 0.449600
vt 0.198999 0.410400
vt 0.901001 0.090400
vt 0.998999 0.129600
vt 0.998999 0.090400
vt 0.201001 0.410400
vt 0.298999 0.449600
vt 0.298999 0.410400
vt 0.901001 0.130400
vt 0.998999 0.169600
vt 0.998999 0.130400
vt 0.301001 0.410400
vt 0.398999 0.449600
vt 0.398999 0.410400
vt 0.998999 0.750801
vt 0.998999 0.949600
vt 0.502002 0.949600
vt 0.997998 0.750400
vt 0.501001 0.750400
vt 0.501001 0.949199
vt 0.998999 0.550801
vt 0.998999 0.749600
vt 0.502002 0.749600
vt 0.501001 0.550400
vt 0.997998 0.550400
vt 0.501001 0.749199
vt 0.002002 0.749600
vt 0.498999 0.749600
vt 0.498999 0.550801
vt 0.498999 0.949600
vt 0.002002 0.949600
vt 0.498999 0.750801
vt 0.497998 0.750400
vt 0.001001 0.750400
vt 0.001001 0.949199
vt 0.497998 0.550400
vt 0.001001 0.550400
vt 0.001001 0.749199
vt 0.898999 0.050400
vt 0.801001 0.129600
vt 0.898999 0.129600
vt 0.001001 0.409600
vt 0.198999 0.370400
vt 0.001001 0.370400
vt 0.898999 0.130400
vt 0.801001 0.209600
vt 0.898999 0.209600
vt 0.398999 0.409600
vt 0.201001 0.370400
vt 0.201001 0.409600
vt 0.898999 0.210400
vt 0.801001 0.289600
vt 0.898999 0.289600
vt 0.598999 0.409600
vt 0.401001 0.370400
vt 0.401001 0.409600
vt 0.898999 0.290400
vt 0.801001 0.369600
vt 0.898999 0.369600
vt 0.601001 0.409600
vt 0.798999 0.370400
vt 0.601001 0.370400
vt 0.401001 0.210400
vt 0.001001 0.290400
vt 0.501001 0.210400
vt 0.201001 0.290400
vt 0.601001 0.129600
vt 0.401001 0.290400
vt 0.601001 0.209600
vt 0.001001 0.330400
vt 0.601001 0.289600
vt 0.398999 0.330400
vt 0.701001 0.129600
vt 0.401001 0.330400
vt 0.701001 0.130400
vt 0.601001 0.290400
vt 0.001001 0.129600
vt 0.701001 0.289600
vt 0.798999 0.330400
vt 0.001001 0.130400
vt 0.201001 0.129600
vt 0.201001 0.209600
vt 0.001001 0.289600
vt 0.401001 0.129600
vt 0.201001 0.289600
vt 0.401001 0.130400
vt 0.801001 0.409600
vt 0.001001 0.449600
vt 0.901001 0.089600
vt 0.101001 0.449600
vt 0.901001 0.129600
vt 0.201001 0.449600
vt 0.901001 0.169600
vt 0.301001 0.449600
vt 0.801001 0.050400
vt 0.198999 0.409600
vt 0.801001 0.130400
vt 0.398999 0.370400
vt 0.801001 0.210400
vt 0.598999 0.370400
vt 0.801001 0.290400
vt 0.798999 0.409600
vn 0.3827 0.9239 0.0000
vn 0.9239 0.3827 0.0000
vn 0.9239 -0.3827 0.0000
vn 0.3827 -0.9239 0.0000
vn -0.3827 -0.9239 0.0000
vn -0.9239 -0.3827 0.0000
vn -0.9239 0.3827 0.0000
vn -0.3827 0.9239 0.0000
vn 0.3474 -0.8387 -0.4194
vn 0.8387 -0.3474 -0.4194
vn 0.8387 0.3474 -0.4194
vn 0.3474 0.8387 -0.4194
vn -0.3474 0.8387 -0.4194
vn -0.8387 0.3474 -0.4194
vn 0.0000 -0.0000 1.0000
vn -0.8387 -0.3474 -0.4194
vn -0.3474 -0.8387 -0.4194
g Cylinder_Cylinder_Colours
usemtl Colours
s off
f 1/1/1 4/2/1 3/3/1
f 4/4/2 5/5/2 3/6/2
f 5/7/3 8/8/3 7/9/3
f 8/10/4 9/11/4 7/12/4
f 10/13/5 11/14/5 9/15/5
f 12/16/6 13/17/6 11/18/6
f 14/19/7 15/20/7 13/21/7
f 16/22/8 1/23/8 15/24/8
f 18/25/9 19/26/9 17/27/9
f 19/28/10 22/29/10 21/30/10
f 22/31/11 23/32/11 21/33/11
f 24/34/12 25/35/12 23/36/12
f 25/37/13 28/38/13 27/39/13
f 28/40/14 29/41/14 27/42/14
f 6/43/15 20/44/15 8/45/15
f 30/46/16 31/47/16 29/48/16
f 31/49/17 18/50/17 17/51/17
f 6/52/15 24/53/15 22/54/15
f 2/55/15 24/56/15 4/57/15
f 16/58/15 26/59/15 2/60/15
f 14/61/15 28/62/15 16/63/15
f 12/64/15 30/65/15 14/66/15
f 10/67/15 32/68/15 12/69/15
f 10/70/15 20/71/15 18/72/15
f 45/73/5 36/74/5 37/75/5
f 43/76/7 34/77/7 35/78/7
f 48/79/2 39/80/2 40/81/2
f 46/82/4 37/83/4 38/84/4
f 44/85/6 35/86/6 36/87/6
f 42/88/8 33/89/8 34/90/8
f 41/91/1 40/92/1 33/93/1
f 47/94/3 38/95/3 39/96/3
f 49/97/15 44/98/15 45/99/15
f 43/100/15 44/101/15 49/102/15
f 49/103/15 41/104/15 42/105/15
f 42/106/15 43/107/15 49/108/15
f 48/109/15 41/110/15 49/111/15
f 47/112/15 48/113/15 49/114/15
f 46/115/15 47/116/15 49/117/15
f 45/118/15 46/119/15 49/120/15
f 29/121/15 38/122/15 27/123/15
f 25/124/15 38/125/15 37/126/15
f 25/127/15 36/128/15 23/129/15
f 23/130/15 35/131/15 21/132/15
f 21/133/15 34/134/15 19/135/15
f 19/136/15 33/137/15 17/138/15
f 17/139/15 40/140/15 31/141/15
f 29/142/15 40/143/15 39/144/15
f 1/1/1 2/145/1 4/2/1
f 4/4/2 6/146/2 5/5/2
f 5/7/3 6/147/3 8/8/3
f 8/10/4 10/148/4 9/11/4
f 10/13/5 12/149/5 11/14/5
f 12/16/6 14/150/6 13/17/6
f 14/19/7 16/151/7 15/20/7
f 16/22/8 2/152/8 1/23/8
f 18/25/9 20/153/9 19/26/9
f 19/28/10 20/154/10 22/29/10
f 22/31/11 24/155/11 23/32/11
f 24/34/12 26/156/12 25/35/12
f 25/37/13 26/157/13 28/38/13
f 28/40/14 30/158/14 29/41/14
f 6/43/15 22/159/15 20/44/15
f 30/46/16 32/160/16 31/47/16
f 31/49/17 32/161/17 18/50/17
f 6/52/15 4/162/15 24/53/15
f 2/55/15 26/163/15 24/56/15
f 16/58/15 28/164/15 26/59/15
f 14/61/15 30/165/15 28/62/15
f 12/64/15 32/166/15 30/65/15
f 10/67/15 18/167/15 32/68/15
f 10/70/15 8/168/15 20/71/15
f 45/73/5 44/169/5 36/74/5
f 43/76/7 42/170/7 34/77/7
f 48/79/2 47/171/2 39/80/2
f 46/82/4 45/172/4 37/83/4
f 44/85/6 43/173/6 35/86/6
f 42/88/8 41/174/8 33/89/8
f 41/91/1 48/175/1 40/92/1
f 47/94/3 46/176/3 38/95/3
f 29/121/15 39/177/15 38/122/15
f 25/124/15 27/178/15 38/125/15
f 25/127/15 37/179/15 36/128/15
f 23/130/15 36/180/15 35/131/15
f 21/133/15 35/181/15 34/134/15
f 19/136/15 34/182/15 33/137/15
f 17/139/15 33/183/15 40/140/15
f 29/142/15 31/184/15 40/143/15
