# Blender v2.79 (sub 0) OBJ File: 'icicle.blend'
# www.blender.org
mtllib icicle.mtl
o Cone
v 0.000000 1.500000 0.250000
v 0.216506 1.500000 0.125000
v 0.216506 1.500000 -0.125000
v -0.000000 1.500000 -0.250000
v 0.000000 0.000000 -0.000000
v -0.216506 1.500000 -0.125000
v -0.216506 1.500000 0.125000
vt 0.000000 1.000000
vt 0.500000 0.000000
vt 0.200000 1.000000
vt 0.400000 1.000000
vt 0.600000 1.000000
vt 0.800000 1.000000
vt 1.000000 1.000000
vt 0.200000 1.000000
vt 0.000000 0.750000
vt 0.000000 0.250000
vt 1.000000 0.250000
vt 0.500000 0.000000
vt 1.000000 0.750000
vt 0.500000 1.000000
vn 0.4949 -0.1429 0.8571
vn 0.9897 -0.1429 -0.0000
vn 0.4949 -0.1429 -0.8571
vn -0.4949 -0.1429 -0.8571
vn -0.9897 -0.1429 0.0000
vn -0.4949 -0.1429 0.8571
vn 0.0000 1.0000 0.0000
g Cone_Cone_Ice
usemtl Ice
s off
f 1/1/1 5/2/1 2/3/1
f 2/3/2 5/2/2 3/4/2
f 3/4/3 5/2/3 4/5/3
f 4/5/4 5/2/4 6/6/4
f 6/6/5 5/2/5 7/7/5
f 7/8/6 5/2/6 1/1/6
f 6/9/7 7/10/7 2/11/7
f 7/10/7 1/12/7 2/11/7
f 2/11/7 3/13/7 4/14/7
f 4/14/7 6/9/7 2/11/7
