# Blender v2.79 (sub 0) OBJ File: 'snowgre-body.blend'
# www.blender.org
mtllib snowgre-body.mtl
o Icosphere.001
v 0.000000 -0.500000 0.000000
v 1.266313 0.605561 0.920019
v -0.483679 0.605560 1.488636
v -1.565246 0.605569 0.000000
v -0.483679 0.605560 -1.488636
v 1.266313 0.605561 -0.920019
v 0.483679 2.394440 1.488636
v -1.266313 2.394439 0.920019
v -1.266313 2.394439 -0.920019
v 0.483679 2.394440 -1.488636
v 1.565246 2.394431 0.000000
v 0.000000 3.500000 0.000000
v -0.284297 -0.201309 0.874992
v 0.744315 -0.201308 0.540770
v 0.460020 0.448525 1.415770
v 1.488634 0.448528 0.000000
v 0.744315 -0.201308 -0.540770
v -0.920027 -0.201303 0.000000
v -1.204331 0.448528 0.874995
v -0.284297 -0.201309 -0.874992
v -1.204331 0.448528 -0.874995
v 0.460020 0.448525 -1.415770
v 1.664351 1.500000 0.540772
v 1.664351 1.500000 -0.540772
v 0.000000 1.500000 1.750000
v 1.028625 1.500000 1.415779
v -1.664351 1.500000 0.540772
v -1.028625 1.500000 1.415779
v -1.028625 1.500000 -1.415779
v -1.664351 1.500000 -0.540772
v 1.028625 1.500000 -1.415779
v 0.000000 1.500000 -1.750000
v 1.204331 2.551472 0.874995
v -0.460020 2.551475 1.415770
v -1.488634 2.551472 0.000000
v -0.460020 2.551475 -1.415770
v 1.204331 2.551472 -0.874995
v 0.284297 3.201309 0.874992
v 0.920027 3.201303 0.000000
v -0.744315 3.201308 0.540770
v -0.744315 3.201308 -0.540770
v 0.284297 3.201309 -0.874992
vt 3.045448 -1.653337
vt 2.681812 -1.023493
vt 3.409084 -1.023493
vt 2.318176 -0.393649
vt 1.954540 -1.023493
vt 1.590904 -0.393649
vt -2.772728 -1.653337
vt -3.136364 -1.023493
vt -2.409092 -1.023493
vt -1.318184 -1.653337
vt -1.681820 -1.023493
vt -0.954548 -1.023493
vt 0.136360 -1.653337
vt -0.227276 -1.023493
vt 0.499996 -1.023493
vt 1.954540 0.236191
vt 3.772720 -0.393649
vt 3.045448 -0.393649
vt 3.409084 0.236191
vt -2.045456 -0.393649
vt -2.772728 -0.393649
vt -2.409092 0.236191
vt -0.590912 -0.393649
vt -1.318184 -0.393649
vt -0.954548 0.236191
vt 0.863632 -0.393649
vt 0.136360 -0.393649
vt 0.499996 0.236191
vt 2.681812 0.236191
vt 4.136360 0.236191
vt -1.681820 0.236191
vt -0.227276 0.236191
vt 1.227268 0.236191
vt 3.045448 0.866031
vt 2.318176 0.866031
vt 2.681812 1.495875
vt 4.500000 0.866031
vt 3.772724 0.866031
vt 4.136360 1.495875
vt -1.318184 0.866031
vt -2.045456 0.866031
vt -1.681820 1.495875
vt 0.136360 0.866031
vt -0.590912 0.866031
vt -0.227276 1.495875
vt 1.590904 0.866031
vt 0.863632 0.866031
vt 1.227268 1.495875
vt 0.499996 1.495875
vt 0.863632 2.125719
vt -0.954548 1.495875
vt -0.590912 2.125719
vt -2.409092 1.495875
vt -2.045456 2.125719
vt -2.772728 0.866031
vt 3.409084 1.495875
vt 3.772720 2.125719
vt 1.954540 1.495875
vt 2.318176 2.125719
vt -3.136364 0.236191
vt -3.500000 -0.393649
vt 1.227268 -1.023493
vt 1.590904 -1.653337
vn 0.0000 -1.0000 0.0000
vn 0.4586 -0.8238 0.3332
vn -0.1752 -0.8238 0.5391
vn 0.7383 -0.4088 0.5364
vn 0.8735 -0.4868 0.0000
vn -0.5669 -0.8238 0.0000
vn -0.1752 -0.8238 -0.5391
vn 0.4586 -0.8238 -0.3332
vn 0.9510 0.0000 0.3090
vn -0.2820 -0.4088 0.8679
vn 0.2699 -0.4868 0.8307
vn 0.0000 0.0000 1.0000
vn -0.9126 -0.4088 0.0000
vn -0.7067 -0.4868 0.5134
vn -0.9510 0.0000 0.3090
vn -0.2820 -0.4088 -0.8679
vn -0.7067 -0.4868 -0.5134
vn -0.5878 0.0000 -0.8090
vn 0.7383 -0.4088 -0.5364
vn 0.2699 -0.4868 -0.8307
vn 0.5878 0.0000 -0.8090
vn 0.5878 0.0000 0.8090
vn -0.5878 0.0000 0.8090
vn -0.9510 0.0000 -0.3090
vn 0.0000 0.0000 -1.0000
vn 0.9510 0.0000 -0.3090
vn 0.2820 0.4088 0.8679
vn 0.7067 0.4868 0.5134
vn 0.1752 0.8238 0.5391
vn -0.7383 0.4088 0.5364
vn -0.2699 0.4868 0.8307
vn -0.4586 0.8238 0.3332
vn -0.7383 0.4088 -0.5364
vn -0.8735 0.4868 0.0000
vn -0.4586 0.8238 -0.3332
vn 0.2820 0.4088 -0.8679
vn -0.2699 0.4868 -0.8307
vn 0.1752 0.8238 -0.5391
vn 0.9126 0.4088 0.0000
vn 0.7067 0.4868 -0.5134
vn 0.5669 0.8238 0.0000
vn 0.0000 1.0000 0.0000
g Icosphere.001_Icosphere.001_Snow
usemtl Snow
s 1
f 1/1/1 14/2/2 13/3/3
f 2/4/4 14/5/2 16/6/5
f 1/7/1 13/8/3 18/9/6
f 1/10/1 18/11/6 20/12/7
f 1/13/1 20/14/7 17/15/8
f 2/4/4 16/6/5 23/16/9
f 3/17/10 15/18/11 25/19/12
f 4/20/13 19/21/14 27/22/15
f 5/23/16 21/24/17 29/25/18
f 6/26/19 22/27/20 31/28/21
f 2/4/4 23/16/9 26/29/22
f 3/17/10 25/19/12 28/30/23
f 4/20/13 27/22/15 30/31/24
f 5/23/16 29/25/18 32/32/25
f 6/26/19 31/28/21 24/33/26
f 7/34/27 33/35/28 38/36/29
f 8/37/30 34/38/31 40/39/32
f 9/40/33 35/41/34 41/42/35
f 10/43/36 36/44/37 42/45/38
f 11/46/39 37/47/40 39/48/41
f 39/48/41 42/49/38 12/50/42
f 39/48/41 37/47/40 42/49/38
f 37/47/40 10/43/36 42/49/38
f 42/45/38 41/51/35 12/52/42
f 42/45/38 36/44/37 41/51/35
f 36/44/37 9/40/33 41/51/35
f 41/42/35 40/53/32 12/54/42
f 41/42/35 35/41/34 40/53/32
f 35/41/34 8/55/30 40/53/32
f 40/39/32 38/56/29 12/57/42
f 40/39/32 34/38/31 38/56/29
f 34/38/31 7/34/27 38/56/29
f 38/36/29 39/58/41 12/59/42
f 38/36/29 33/35/28 39/58/41
f 33/35/28 11/46/39 39/58/41
f 24/33/26 37/47/40 11/46/39
f 24/33/26 31/28/21 37/47/40
f 31/28/21 10/43/36 37/47/40
f 32/32/25 36/44/37 10/43/36
f 32/32/25 29/25/18 36/44/37
f 29/25/18 9/40/33 36/44/37
f 30/31/24 35/41/34 9/40/33
f 30/31/24 27/22/15 35/41/34
f 27/22/15 8/55/30 35/41/34
f 28/30/23 34/38/31 8/37/30
f 28/30/23 25/19/12 34/38/31
f 25/19/12 7/34/27 34/38/31
f 26/29/22 33/35/28 7/34/27
f 26/29/22 23/16/9 33/35/28
f 23/16/9 11/46/39 33/35/28
f 31/28/21 32/32/25 10/43/36
f 31/28/21 22/27/20 32/32/25
f 22/27/20 5/23/16 32/32/25
f 29/25/18 30/31/24 9/40/33
f 29/25/18 21/24/17 30/31/24
f 21/24/17 4/20/13 30/31/24
f 27/22/15 28/60/23 8/55/30
f 27/22/15 19/21/14 28/60/23
f 19/21/14 3/61/10 28/60/23
f 25/19/12 26/29/22 7/34/27
f 25/19/12 15/18/11 26/29/22
f 15/18/11 2/4/4 26/29/22
f 23/16/9 24/33/26 11/46/39
f 23/16/9 16/6/5 24/33/26
f 16/6/5 6/26/19 24/33/26
f 17/15/8 22/27/20 6/26/19
f 17/15/8 20/14/7 22/27/20
f 20/14/7 5/23/16 22/27/20
f 20/12/7 21/24/17 5/23/16
f 20/12/7 18/11/6 21/24/17
f 18/11/6 4/20/13 21/24/17
f 18/9/6 19/21/14 4/20/13
f 18/9/6 13/8/3 19/21/14
f 13/8/3 3/61/10 19/21/14
f 16/6/5 17/62/8 6/26/19
f 16/6/5 14/5/2 17/62/8
f 14/5/2 1/63/1 17/62/8
f 13/3/3 15/18/11 3/17/10
f 13/3/3 14/2/2 15/18/11
f 14/2/2 2/4/4 15/18/11
