# Blender v2.79 (sub 0) OBJ File: 'spike.blend'
# www.blender.org
mtllib spike.mtl
o Cone
v 0.000000 0.000000 -0.187500
v 0.093750 0.000000 -0.162380
v 0.162380 0.000000 -0.093750
v 0.187500 0.000000 0.000000
v 0.162380 0.000000 0.093750
v 0.093750 0.000000 0.162380
v 0.000000 1.500000 0.000000
v 0.000000 0.000000 0.187500
v -0.093750 0.000000 0.162380
v -0.162380 0.000000 0.093750
v -0.187500 0.000000 0.000000
v -0.162380 0.000000 -0.093750
v -0.093750 0.000000 -0.162380
vt 0.625000 0.031250
vt 0.502882 0.968750
vt 0.541667 0.031250
vt 0.458333 0.031250
vt 0.375000 0.031250
vt 0.291667 0.031250
vt 0.208333 0.031250
vt 0.125000 0.031250
vt 0.041667 0.031250
vt 0.958333 0.031250
vt 0.875000 0.031250
vt 0.791667 0.031250
vt 0.708333 0.031250
vn 0.0000 0.1240 -0.9922
vn 0.0000 1.0000 0.0000
vn 0.4961 0.1240 -0.8593
vn 0.8593 0.1240 -0.4961
vn 0.9922 0.1240 0.0000
vn 0.8593 0.1240 0.4961
vn 0.4961 0.1240 0.8593
vn 0.0000 0.1240 0.9922
vn -0.4961 0.1240 0.8593
vn -0.8593 0.1240 0.4961
vn -0.9922 0.1240 0.0000
vn -0.8593 0.1240 -0.4961
vn -0.4961 0.1240 -0.8593
g Cone_Cone_Spike
usemtl Spike
s 1
f 1/1/1 7/2/2 2/3/3
f 2/3/3 7/2/2 3/4/4
f 3/4/4 7/2/2 4/5/5
f 4/5/5 7/2/2 5/6/6
f 5/6/6 7/2/2 6/7/7
f 6/7/7 7/2/2 8/8/8
f 8/8/8 7/2/2 9/9/9
f 9/9/9 7/2/2 10/10/10
f 10/10/10 7/2/2 11/11/11
f 11/11/11 7/2/2 12/12/12
f 12/12/12 7/2/2 13/13/13
f 13/13/13 7/2/2 1/1/1
